<?xml version="1.0" encoding="UTF-8"?>
<svg version="1.1" xmlns="http://www.w3.org/2000/svg" width="200" height="200">
<path d="M0 0 C0.99 0 1.98 0 3 0 C3 0.99 3 1.98 3 3 C3.99 3.33 4.98 3.66 6 4 C6.495 6.475 6.495 6.475 7 9 C5.68 9.33 4.36 9.66 3 10 C2.90465342 15.2379106 4.20358842 17.64269268 7.78540039 21.46655273 C9.45749829 23.13770431 11.14601358 24.7925358 12.84765625 26.43359375 C13.7340831 27.31153091 14.62050995 28.18946808 15.53379822 29.0940094 C17.88240991 31.41478221 20.24337981 33.72193522 22.61114502 36.02313232 C25.02834218 38.37872801 27.4284451 40.75160329 29.83007812 43.12304688 C34.53784558 47.76472857 39.26232996 52.388854 44 57 C51.53434269 50.65860509 58.55551373 43.84720116 65.57226562 36.94262695 C67.11024159 35.43644756 68.65621201 33.93838924 70.20996094 32.44848633 C72.46943755 30.28033301 74.70151971 28.08698066 76.9296875 25.88671875 C77.62440155 25.23015793 78.3191156 24.57359711 79.03488159 23.8971405 C83.24287265 19.67184669 84.80171234 16.69908769 85.02981567 10.69148254 C85.0199765 10.1332933 85.01013733 9.57510406 85 9 C84.01 9 83.02 9 82 9 C82.33 7.02 82.66 5.04 83 3 C83.66 3 84.32 3 85 3 C85.33 2.01 85.66 1.02 86 0 C86.99 0 87.98 0 89 0 C89 0.99 89 1.98 89 3 C89.66 3 90.32 3 91 3 C91.33 4.98 91.66 6.96 92 9 C91.01 9 90.02 9 89 9 C88.95365477 14.94405352 89.6020676 18.12625975 93.63012695 22.5859375 C95.22855986 24.20327046 96.84940342 25.79866466 98.48828125 27.375 C99.77039742 28.65080933 99.77039742 28.65080933 101.07841492 29.95239258 C102.8823791 31.7399383 104.69592064 33.51786405 106.51831055 35.28662109 C109.31187083 37.99938902 112.07478042 40.74061797 114.83398438 43.48828125 C116.59204012 45.22308867 118.35175035 46.95622138 120.11328125 48.6875 C120.94257645 49.50718262 121.77187164 50.32686523 122.626297 51.17138672 C123.40357651 51.92307129 124.18085602 52.67475586 124.98168945 53.44921875 C125.66262161 54.11268311 126.34355377 54.77614746 127.04512024 55.4597168 C129.07523904 57.05928213 130.47240102 57.59810001 133 58 C133 59.32 133 60.64 133 62 C118.48 62 103.96 62 89 62 C89 66.29 89 70.58 89 75 C87.68 75 86.36 75 85 75 C85 70.71 85 66.42 85 62 C57.94 62 30.88 62 3 62 C3 66.29 3 70.58 3 75 C2.01 75 1.02 75 0 75 C0 70.71 0 66.42 0 62 C-14.52 62 -29.04 62 -44 62 C-44 60.68 -44 59.36 -44 58 C-43.25832581 57.74401031 -42.51665161 57.48802063 -41.75250244 57.22427368 C-38.86053077 55.93796608 -37.21117601 54.61361334 -34.95996094 52.41162109 C-33.8241861 51.30939713 -33.8241861 51.30939713 -32.66546631 50.18490601 C-31.86320618 49.3891214 -31.06094604 48.59333679 -30.234375 47.7734375 C-28.98337006 46.54096786 -28.98337006 46.54096786 -27.70709229 45.28359985 C-25.94815359 43.54421224 -24.19334071 41.80064391 -22.44238281 40.05322266 C-19.76307641 37.38800764 -17.0582965 34.75059919 -14.3515625 32.11328125 C-12.64419694 30.41831344 -10.93841358 28.72175006 -9.234375 27.0234375 C-8.42401794 26.23979828 -7.61366089 25.45615906 -6.77874756 24.64877319 C-2.00684723 19.81820354 0.02931759 16.87692926 0 10 C-0.99 10 -1.98 10 -3 10 C-2.67 7.69 -2.34 5.38 -2 3 C-1.34 3 -0.68 3 0 3 C0 2.01 0 1.02 0 0 Z M-1 23 C-12.22 34.22 -23.44 45.44 -35 57 C-33.68 57.33 -32.36 57.66 -31 58 C-29.23714614 56.99614582 -29.23714614 56.99614582 -27.68432617 55.33129883 C-27.06075729 54.72349075 -26.43718842 54.11568268 -25.79472351 53.48945618 C-25.13414444 52.81875595 -24.47356537 52.14805573 -23.79296875 51.45703125 C-23.10817947 50.7770256 -22.4233902 50.09701996 -21.71784973 49.39640808 C-20.27196785 47.9539319 -18.83239409 46.5051094 -17.39868164 45.05053711 C-15.19612678 42.82123156 -12.96822239 40.61980883 -10.73632812 38.41992188 C-9.33693564 37.01722541 -7.93909493 35.61297875 -6.54296875 34.20703125 C-5.53691841 33.21616264 -5.53691841 33.21616264 -4.51054382 32.20527649 C-3.90273575 31.58170761 -3.29492767 30.95813873 -2.66870117 30.31567383 C-1.85739998 29.49840569 -1.85739998 29.49840569 -1.02970886 28.66462708 C-0.68990494 28.11530014 -0.35010101 27.56597321 0 27 C-0.495 25.02 -0.495 25.02 -1 23 Z M3 23 C3.25084921 28.57692731 6.78321335 31.37864315 10.51953125 35.0859375 C11.17451096 35.74711578 11.82949066 36.40829407 12.50431824 37.08950806 C13.88889831 38.48118084 15.27862543 39.86774916 16.6730957 41.24951172 C18.8102011 43.37271605 20.92218402 45.51886235 23.03320312 47.66796875 C24.3813608 49.01707724 25.73092349 50.36478348 27.08203125 51.7109375 C27.71446243 52.35662689 28.34689362 53.00231628 28.99848938 53.66757202 C29.59558212 54.25213165 30.19267487 54.83669128 30.80786133 55.43896484 C31.58943352 56.21909439 31.58943352 56.21909439 32.38679504 57.01498413 C34.00525682 58.24142245 34.00525682 58.24142245 36.19950867 57.6600647 C36.79367081 57.44224335 37.38783295 57.224422 38 57 C33.17966637 52.15440503 28.35549024 47.31266101 23.52856445 42.47363281 C21.88541368 40.8254392 20.24315961 39.17635114 18.60180664 37.52636719 C16.24858479 35.16107753 13.89220448 32.79897584 11.53515625 30.4375 C10.79660904 29.6937915 10.05806183 28.95008301 9.2971344 28.18383789 C8.61650436 27.50313232 7.93587433 26.82242676 7.23461914 26.12109375 C6.6328334 25.5170874 6.03104767 24.91308105 5.411026 24.29077148 C4.1957503 22.88750569 4.1957503 22.88750569 3 23 Z M84 24 C73.11 34.89 62.22 45.78 51 57 C52.32 57.33 53.64 57.66 55 58 C56.72151654 57.03669121 56.72151654 57.03669121 58.22387695 55.4230957 C59.12919914 54.54141472 59.12919914 54.54141472 60.05281067 53.641922 C60.69151596 52.99309555 61.33022125 52.3442691 61.98828125 51.67578125 C62.65087448 51.01797165 63.31346771 50.36016205 63.99613953 49.68241882 C65.39494303 48.28702077 66.78744002 46.88527671 68.17407227 45.4777832 C70.30421309 43.32089098 72.45966159 41.19192529 74.61914062 39.06445312 C75.97296029 37.70732948 77.32522814 36.34865566 78.67578125 34.98828125 C79.3246077 34.34957596 79.97343414 33.71087067 80.641922 33.05281067 C81.22970932 32.44926254 81.81749664 31.84571442 82.4230957 31.22387695 C83.20774956 30.43325615 83.20774956 30.43325615 84.008255 29.62666321 C84.49916878 28.82146492 84.49916878 28.82146492 85 28 C84.505 26.02 84.505 26.02 84 24 Z M89 24 C89.28207417 29.50012207 92.60632928 32.20245188 96.30078125 35.8671875 C96.93356491 36.50616974 97.56634857 37.14515198 98.2183075 37.80349731 C99.55580957 39.14809093 100.89845727 40.48758301 102.24584961 41.82226562 C104.31054126 43.87305445 106.35006899 45.94675055 108.38867188 48.0234375 C109.69125664 49.32697308 110.99524645 50.62910649 112.30078125 51.9296875 C112.91133865 52.55350311 113.52189606 53.17731873 114.1509552 53.82003784 C116.0529293 55.73869858 116.0529293 55.73869858 119 58 C121.16204334 57.73056116 121.16204334 57.73056116 123 57 C118.3220821 52.29682021 113.64032139 47.59749192 108.95581055 42.90087891 C107.36116229 41.30118789 105.76741078 39.70060245 104.17456055 38.09912109 C101.89083749 35.80332987 99.6039561 33.51072737 97.31640625 31.21875 C96.59973282 30.49691528 95.88305939 29.77508057 95.14466858 29.03137207 C94.4840593 28.37068726 93.82345001 27.71000244 93.14282227 27.02929688 C92.55880142 26.44305542 91.97478058 25.85681396 91.37306213 25.25280762 C90.18666685 23.88766373 90.18666685 23.88766373 89 24 Z M-1 33 C-8.92 40.92 -16.84 48.84 -25 57 C-23.68 57.33 -22.36 57.66 -21 58 C-18.45585683 56.23477162 -18.45585683 56.23477162 -15.98046875 53.64453125 C-15.51763992 53.18648605 -15.0548111 52.72844086 -14.57795715 52.2565155 C-13.6028587 51.28481924 -12.63404529 50.30678105 -11.67114258 49.32299805 C-10.19266609 47.8177596 -8.68944057 46.34103204 -7.18164062 44.86523438 C-6.23797599 43.91826569 -5.29586356 42.96974714 -4.35546875 42.01953125 C-3.06612427 40.72172729 -3.06612427 40.72172729 -1.75073242 39.39770508 C-1.17299072 38.6064624 -0.59524902 37.81521973 0 37 C-0.33 35.68 -0.66 34.36 -1 33 Z M3 33 C3.72586019 39.9463042 9.07730081 43.69574132 13.8125 48.375 C14.72837891 49.31472656 15.64425781 50.25445312 16.58789062 51.22265625 C17.91530273 52.54716797 17.91530273 52.54716797 19.26953125 53.8984375 C20.08010986 54.70974121 20.89068848 55.52104492 21.72583008 56.35693359 C23.84688363 58.27467975 23.84688363 58.27467975 26.2956543 57.75634766 C26.85808838 57.50675293 27.42052246 57.2571582 28 57 C24.60350912 53.57886664 21.20380482 50.16097238 17.80102539 46.74609375 C16.64289941 45.58292608 15.48567077 44.41886426 14.3293457 43.25390625 C12.67111215 41.5835999 11.00972188 39.9164921 9.34765625 38.25 C8.82784683 37.7250293 8.30803741 37.20005859 7.7724762 36.65917969 C6.53382033 35.42032908 5.26946722 34.20725811 4 33 C3.67 33 3.34 33 3 33 Z M80.2275238 36.63352966 C79.70771439 37.15536331 79.18790497 37.67719696 78.65234375 38.21484375 C78.12105362 38.74517715 77.58976349 39.27551056 77.04237366 39.82191467 C75.91723582 40.94637054 74.79336572 42.07209609 73.6706543 43.19897461 C71.94495309 44.93002381 70.21399664 46.65568781 68.48242188 48.38085938 C67.39290837 49.47103366 66.30370509 50.56151809 65.21484375 51.65234375 C64.43209328 52.43205788 64.43209328 52.43205788 63.63352966 53.2275238 C61.11852409 55.26711096 61.11852409 55.26711096 60 58 C63.32843252 58.39778376 64.6523918 58.25404175 67.40356445 56.2434082 C68.215271 55.43734131 69.02697754 54.63127441 69.86328125 53.80078125 C70.74951172 52.92099609 71.63574219 52.04121094 72.54882812 51.13476562 C73.46083984 50.20341797 74.37285156 49.27207031 75.3125 48.3125 C76.70952148 46.94448242 76.70952148 46.94448242 78.13476562 45.54882812 C79.01455078 44.66259766 79.89433594 43.77636719 80.80078125 42.86328125 C81.60684814 42.05157471 82.41291504 41.23986816 83.2434082 40.40356445 C85.25404175 37.6523918 85.39778376 36.32843252 85 33 C82.90099348 33 81.63322843 35.23704818 80.2275238 36.63352966 Z M89 33 C88.60221624 36.32843252 88.74595825 37.6523918 90.7565918 40.40356445 C91.56265869 41.215271 92.36872559 42.02697754 93.19921875 42.86328125 C94.07900391 43.74951172 94.95878906 44.63574219 95.86523438 45.54882812 C96.79658203 46.46083984 97.72792969 47.37285156 98.6875 48.3125 C100.05551758 49.70952148 100.05551758 49.70952148 101.45117188 51.13476562 C102.33740234 52.01455078 103.22363281 52.89433594 104.13671875 53.80078125 C104.94842529 54.60684814 105.76013184 55.41291504 106.59643555 56.2434082 C109.3476082 58.25404175 110.67156748 58.39778376 114 58 C109.18825126 52.20879999 104.02258518 46.87191517 98.6875 41.5625 C97.86443359 40.73556641 97.04136719 39.90863281 96.19335938 39.05664062 C95.41154297 38.27611328 94.62972656 37.49558594 93.82421875 36.69140625 C93.11354248 35.98185791 92.40286621 35.27230957 91.6706543 34.54125977 C90.25633525 32.88698827 90.25633525 32.88698827 89 33 Z M-4.16015625 46.02734375 C-4.78857422 46.65447266 -5.41699219 47.28160156 -6.06445312 47.92773438 C-6.72380859 48.59095703 -7.38316406 49.25417969 -8.0625 49.9375 C-9.05733398 50.9265332 -9.05733398 50.9265332 -10.07226562 51.93554688 C-11.01295898 52.87817383 -11.01295898 52.87817383 -11.97265625 53.83984375 C-12.55281494 54.42113037 -13.13297363 55.00241699 -13.73071289 55.60131836 C-15.11200379 56.80862905 -15.11200379 56.80862905 -15 58 C-10.05 58 -5.1 58 0 58 C0 53.05 0 48.1 0 43 C-1.83034055 43 -2.93127395 44.80084597 -4.16015625 46.02734375 Z M3 43 C3 47.95 3 52.9 3 58 C7.95 58 12.9 58 18 58 C13.60831493 52.72997792 9.0573621 47.64697949 4 43 C3.67 43 3.34 43 3 43 Z M80.83984375 46.02734375 C80.21142578 46.65447266 79.58300781 47.28160156 78.93554688 47.92773438 C78.27619141 48.59095703 77.61683594 49.25417969 76.9375 49.9375 C75.94266602 50.9265332 75.94266602 50.9265332 74.92773438 51.93554688 C73.98704102 52.87817383 73.98704102 52.87817383 73.02734375 53.83984375 C72.44718506 54.42113037 71.86702637 55.00241699 71.26928711 55.60131836 C69.88799621 56.80862905 69.88799621 56.80862905 70 58 C74.95 58 79.9 58 85 58 C85 53.05 85 48.1 85 43 C83.16965945 43 82.06872605 44.80084597 80.83984375 46.02734375 Z M89 43 C89 47.95 89 52.9 89 58 C93.95 58 98.9 58 104 58 C99.60831493 52.72997792 95.0573621 47.64697949 90 43 C89.67 43 89.34 43 89 43 Z " fill="#000000" transform="translate(57,61)"/>
<path d="M0 0 C0.61488281 0.08378906 1.22976562 0.16757813 1.86328125 0.25390625 C3.07564453 0.40666016 3.07564453 0.40666016 4.3125 0.5625 C5.11300781 0.66691406 5.91351563 0.77132812 6.73828125 0.87890625 C9.16817116 1.14755178 9.16817116 1.14755178 12 0 C13.7015625 0.2475 13.7015625 0.2475 15.4375 0.5 C18.59661459 0.9433845 20.06890168 0.90187641 23 0 C23.33 0.33 23.66 0.66 24 1 C25.50478539 0.88424728 27.00519021 0.70813807 28.5 0.5 C29.99480979 0.29186193 31.49521461 0.11575272 33 0 C33.495 0.495 33.495 0.495 34 1 C35.99950636 1.04443347 38.00038436 1.03920815 40 1 C41.32 1 42.64 1 44 1 C42.125 4.875 42.125 4.875 41 6 C38.19822034 6.10027422 35.42650888 6.13873289 32.625 6.125 C31.84382813 6.12886719 31.06265625 6.13273438 30.2578125 6.13671875 C26.9234054 6.13100915 24.18393014 6.06131005 21 5 C20.67 5.33 20.34 5.66 20 6 C17.21737057 6.12715522 14.4705927 6.18521315 11.6875 6.1875 C10.91470703 6.19974609 10.14191406 6.21199219 9.34570312 6.22460938 C2.30653026 6.24276717 2.30653026 6.24276717 -1 4 C-0.67 2.68 -0.34 1.36 0 0 Z " fill="#000000" transform="translate(80,126)"/>
<path d="M0 0 C0.59167969 0.08378906 1.18335937 0.16757813 1.79296875 0.25390625 C6.19245057 0.82088678 9.64444307 0.96790154 14 0 C15.67225729 0.30404678 17.34080104 0.63128912 19 1 C19.33 0.67 19.66 0.34 20 0 C22.65052544 -0.14725141 24.90546906 -0.02126946 27.5 0.5625 C30.00377305 1.15620444 30.00377305 1.15620444 32.5 0.5 C35.33661916 -0.06732383 37.19425119 0.42446178 40 1 C42.23167185 0.63143136 42.23167185 0.63143136 44 0 C44 1.32 44 2.64 44 4 C40.57756859 6.42422225 37.95658734 5.86765852 33.953125 5.22265625 C31.48312303 4.94107603 29.41539583 5.47775225 27 6 C25.7934375 5.7525 25.7934375 5.7525 24.5625 5.5 C21.46789424 4.89617449 19.08924001 5.47417191 16 6 C14.66666667 5.66666667 13.33333333 5.33333333 12 5 C11.05125 5.20625 10.1025 5.4125 9.125 5.625 C5.19974191 6.09603097 3.3391305 4.98757768 0 3 C0 2.01 0 1.02 0 0 Z " fill="#000000" transform="translate(79,133)"/>
<path d="M0 0 C0.60328125 0.08378906 1.2065625 0.16757813 1.828125 0.25390625 C3.02695313 0.40666016 3.02695313 0.40666016 4.25 0.5625 C5.03890625 0.66691406 5.8278125 0.77132812 6.640625 0.87890625 C9.0065637 1.00033688 10.73094209 0.59738472 13 0 C13.33 0.33 13.66 0.66 14 1 C15.66605828 1.0450286 17.33378384 1.03874921 19 1 C20.32 1 21.64 1 23 1 C22.625 2.9375 22.625 2.9375 22 5 C18.73188198 6.63405901 15.15000593 6.18453757 11.5625 6.1875 C10.39750977 6.20586914 10.39750977 6.20586914 9.20898438 6.22460938 C5.28767691 6.23474195 3.33381255 6.2225417 0 4 C0 2.68 0 1.36 0 0 Z " fill="#000000" transform="translate(161,126)"/>
<path d="M0 0 C1.85625 0.2784375 1.85625 0.2784375 3.75 0.5625 C6.80593312 0.95733738 9.03437737 0.94899924 12 0 C12.33 0.33 12.66 0.66 13 1 C14.52519276 0.91062197 16.04681929 0.75462854 17.5625 0.5625 C18.38878906 0.46066406 19.21507813 0.35882813 20.06640625 0.25390625 C21.02353516 0.12822266 21.02353516 0.12822266 22 0 C21.625 2.4375 21.625 2.4375 21 5 C17.73188198 6.63405901 14.15000593 6.18453757 10.5625 6.1875 C9.39750977 6.20586914 9.39750977 6.20586914 8.20898438 6.22460938 C4.28767691 6.23474195 2.33381255 6.2225417 -1 4 C-0.67 2.68 -0.34 1.36 0 0 Z " fill="#000000" transform="translate(18,126)"/>
<path d="M0 0 C1.8253125 0.2784375 1.8253125 0.2784375 3.6875 0.5625 C7.07643994 0.99805038 9.65477846 0.72329114 13 0 C14.66666667 0.33333333 16.33333333 0.66666667 18 1 C20.72502965 0.62277985 20.72502965 0.62277985 23 0 C22.66260373 2.530472 22.3938922 3.6818563 20.375 5.3125 C17.06773862 6.26986514 14.3807743 5.52460291 11 5 C9.96875 5.20625 8.9375 5.4125 7.875 5.625 C5 6 5 6 2.125 4.75 C1.42375 4.1725 0.7225 3.595 0 3 C0 2.01 0 1.02 0 0 Z " fill="#000000" transform="translate(161,133)"/>
<path d="M0 0 C1.8253125 0.2784375 1.8253125 0.2784375 3.6875 0.5625 C7.07643994 0.99805038 9.65477846 0.72329114 13 0 C14.66666667 0.33333333 16.33333333 0.66666667 18 1 C20.72502965 0.62277985 20.72502965 0.62277985 23 0 C23 1.32 23 2.64 23 4 C18.45796508 5.51401164 15.62917752 6.09638415 11 5 C10.175 5.185625 9.35 5.37125 8.5 5.5625 C5.32192033 6.11866394 3.76952118 5.61555402 1 4 C0.1875 1.875 0.1875 1.875 0 0 Z " fill="#000000" transform="translate(17,133)"/>
<path d="M0 0 C0.825 0.185625 1.65 0.37125 2.5 0.5625 C3.49 0.2325 4.48 -0.0975 5.5 -0.4375 C7.6875 0.5 7.6875 0.5 9.5 1.5625 C9.5 2.8825 9.5 4.2025 9.5 5.5625 C8.778125 5.541875 8.05625 5.52125 7.3125 5.5 C4.58074862 5.56070559 2.15743909 5.95508535 -0.5 6.5625 C-0.5 5.9025 -0.5 5.2425 -0.5 4.5625 C-2.15 4.8925 -3.8 5.2225 -5.5 5.5625 C-5.5 4.2425 -5.5 2.9225 -5.5 1.5625 C-2.5 -0.4375 -2.5 -0.4375 0 0 Z " fill="#000000" transform="translate(16.5,74.4375)"/>
<path d="M0 0 C1.0828125 -0.2784375 1.0828125 -0.2784375 2.1875 -0.5625 C2.785625 -0.706875 3.38375 -0.85125 4 -1 C4.99 -0.34 5.98 0.32 7 1 C7 1.99 7 2.98 7 4 C6.2575 3.95875 5.515 3.9175 4.75 3.875 C1.91241048 4.00398134 0.41226062 4.57051222 -2 6 C-2.99 5.34 -3.98 4.68 -5 4 C-6.32 4 -7.64 4 -9 4 C-9 3.01 -9 2.02 -9 1 C-5.25686988 -1.49542008 -4.26097838 -0.78262868 0 0 Z " fill="#000000" transform="translate(107,77)"/>
</svg>
