<?xml version="1.0" standalone="no"?>
<!DOCTYPE svg PUBLIC "-//W3C//DTD SVG 20010904//EN"
 "http://www.w3.org/TR/2001/REC-SVG-20010904/DTD/svg10.dtd">
<svg version="1.0" xmlns="http://www.w3.org/2000/svg"
 width="1024.000000pt" height="1024.000000pt" viewBox="0 0 1024.000000 1024.000000"
 preserveAspectRatio="xMidYMid meet">

<g transform="translate(0.000000,1024.000000) scale(0.100000,-0.100000)"
fill="#000000" stroke="none">
<path d="M5475 8672 c-147 -65 -294 -136 -294 -142 0 -3 154 -97 341 -210 188
-113 400 -240 471 -284 l129 -78 -27 -28 -26 -27 23 -15 c21 -14 27 -14 64 5
l41 20 161 -97 c89 -53 164 -101 167 -105 2 -5 -259 -233 -583 -507 -323 -273
-597 -506 -609 -517 l-23 -20 -198 91 c-109 51 -204 92 -212 92 -27 -1 -297
-105 -299 -115 0 -5 105 -76 235 -156 129 -80 240 -151 245 -156 7 -7 -4 -27
-35 -62 -49 -55 -50 -58 -37 -79 6 -10 22 -8 75 12 48 18 68 22 71 13 4 -13
55 -435 55 -453 0 -6 -21 -14 -47 -18 -57 -7 -140 -34 -148 -46 -3 -5 10 -3
29 5 20 8 52 15 73 14 34 0 30 -2 -31 -19 -37 -10 -73 -23 -79 -29 -15 -15 -3
-14 40 4 51 21 65 18 21 -6 -55 -28 -47 -30 20 -4 79 31 129 39 129 21 0 -8
-6 -12 -13 -9 -17 6 -165 -43 -190 -63 -10 -9 -13 -13 -6 -9 6 3 12 1 12 -5 0
-6 12 -2 28 9 34 25 100 40 172 41 76 0 48 -15 -67 -36 -51 -9 -100 -23 -110
-31 -17 -14 -17 -14 1 -9 30 10 187 36 210 35 11 0 -41 -13 -117 -29 -76 -16
-144 -34 -151 -39 -19 -16 -25 -4 -19 37 9 59 -12 25 -32 -53 -14 -53 -20 -64
-26 -50 -11 29 -11 54 0 37 9 -15 21 57 20 122 -1 35 -3 30 -19 -39 -10 -44
-25 -96 -34 -115 l-16 -35 5 35 c2 19 7 85 9 145 l5 110 -9 -85 c-12 -110 -16
-127 -35 -127 -17 0 -21 32 -5 42 6 3 9 46 9 98 l-2 92 -8 -85 c-16 -146 -27
-149 -28 -7 -1 84 -5 127 -12 127 -7 0 -8 -14 -4 -40 7 -39 -3 -175 -12 -166
-2 2 -8 46 -13 98 -5 52 -14 105 -20 118 -9 22 -10 19 -5 -15 3 -22 8 -65 10
-95 5 -53 4 -52 -20 33 -24 84 -44 135 -45 111 0 -6 11 -48 25 -94 14 -46 25
-95 25 -109 -1 -25 -1 -25 -15 -7 -8 11 -15 30 -15 43 0 34 -38 128 -60 148
-27 24 -25 17 11 -59 17 -35 29 -73 26 -83 -4 -14 -5 -13 -6 5 0 13 -5 20 -11
17 -6 -4 -7 1 -3 11 4 11 3 15 -4 11 -16 -10 -43 3 -43 19 0 8 -21 37 -46 64
-25 27 -43 53 -41 57 3 5 68 53 145 108 77 55 139 101 137 103 -3 3 -287 -146
-342 -180 -18 -11 -38 -16 -45 -12 -7 4 -10 4 -6 -1 11 -11 -22 -34 -50 -35
-12 0 -21 -4 -20 -9 2 -5 -55 -46 -127 -91 -156 -98 -342 -226 -477 -326 -55
-41 -106 -74 -113 -74 -7 0 -15 -6 -17 -13 -2 -8 -59 -59 -128 -114 -508 -408
-975 -905 -1371 -1458 -617 -863 -999 -1841 -999 -2558 0 -389 95 -718 274
-944 78 -98 169 -170 291 -228 144 -69 200 -80 415 -79 104 1 198 6 215 12 25
9 16 10 -62 11 -450 4 -764 224 -877 614 -77 267 -86 583 -25 907 168 883 749
1952 1578 2900 225 257 682 725 709 725 4 0 46 39 93 86 47 47 96 88 109 92
16 4 6 -9 -33 -44 -52 -46 -127 -137 -127 -154 0 -4 35 29 78 72 108 112 144
126 49 19 -42 -47 -77 -94 -77 -104 1 -14 4 -12 20 8 69 87 149 174 170 185
45 23 78 28 38 5 -40 -21 -51 -34 -20 -23 9 4 -18 -31 -60 -77 -43 -46 -78
-88 -78 -94 0 -6 22 13 48 42 26 29 61 61 77 72 17 11 30 25 30 32 0 19 65 58
94 57 24 -2 25 -2 3 -6 -13 -3 -26 -11 -29 -19 -3 -8 -14 -14 -26 -14 -11 0
-17 -3 -14 -6 4 -4 -18 -33 -48 -66 -75 -81 -109 -127 -100 -136 4 -4 10 -1
13 7 8 24 82 99 134 137 26 20 46 40 43 45 -4 5 2 6 11 2 13 -5 15 -3 9 7 -6
9 -4 11 4 5 9 -5 2 -18 -24 -45 -148 -152 -205 -229 -84 -115 41 39 75 75 77
80 7 20 38 48 75 67 59 30 53 16 -9 -21 -31 -18 -53 -35 -50 -38 6 -6 116 66
116 77 0 8 60 23 67 16 2 -2 -22 -21 -54 -42 -106 -69 -239 -212 -217 -232 4
-4 9 0 12 8 7 22 100 111 157 150 l50 34 -57 -62 c-70 -76 -112 -131 -106
-137 3 -3 26 22 52 56 35 45 51 59 65 54 12 -3 22 2 30 17 36 68 41 74 41 52
0 -11 -25 -49 -55 -84 -30 -35 -55 -68 -55 -73 0 -10 131 110 138 126 2 4 8 7
13 7 20 0 6 -31 -41 -91 -27 -35 -50 -67 -50 -72 0 -4 34 27 75 70 41 42 77
74 81 70 4 -4 -23 -38 -59 -76 -37 -38 -67 -73 -67 -77 0 -4 40 30 89 77 97
92 151 136 151 121 0 -5 -26 -30 -58 -55 -56 -45 -132 -128 -132 -144 0 -4 35
27 78 69 42 42 93 84 112 94 34 16 34 16 20 -1 -8 -10 -43 -45 -77 -78 -81
-77 -82 -97 -2 -23 33 31 75 64 92 73 25 12 14 -3 -46 -66 -43 -46 -76 -85
-73 -88 3 -4 23 14 45 38 21 24 60 60 87 79 53 37 49 29 -28 -59 -66 -76 -60
-88 7 -17 30 31 55 61 55 66 0 5 5 12 12 16 7 4 8 3 4 -4 -4 -7 -2 -12 6 -12
7 0 -16 -28 -50 -63 -81 -82 -81 -98 1 -20 34 33 73 66 87 73 14 7 -5 -16 -42
-51 -38 -35 -68 -70 -68 -78 0 -8 22 9 48 36 27 28 64 59 83 68 27 14 19 4
-33 -45 -38 -34 -68 -69 -68 -77 0 -9 17 3 40 30 38 43 97 87 116 87 4 0 -24
-30 -64 -66 -40 -36 -72 -72 -72 -80 0 -9 21 6 48 34 26 27 58 55 71 61 20 11
22 11 13 -6 -6 -10 -25 -31 -42 -48 -17 -16 -36 -38 -42 -48 -8 -16 -7 -17 11
-7 12 6 21 15 21 20 0 12 65 61 84 64 9 1 26 11 38 23 13 11 43 33 68 48 25
16 48 32 51 38 4 5 12 8 19 5 7 -2 -25 -28 -70 -57 -92 -59 -103 -83 -13 -28
32 20 72 39 88 42 27 6 28 5 10 -6 -19 -12 -19 -12 0 -20 16 -5 14 -7 -10 -7
-16 1 -58 -13 -93 -31 -34 -17 -67 -29 -73 -25 -6 3 -28 -14 -51 -38 -61 -66
-66 -86 -9 -38 28 23 48 46 46 51 -3 4 0 11 6 15 8 4 9 3 5 -4 -9 -16 7 -15
22 0 7 7 12 8 12 4 0 -5 -26 -33 -57 -63 l-58 -54 82 58 c45 32 82 63 83 70 0
12 52 33 79 33 22 -1 -28 -29 -51 -30 -10 0 -18 -6 -18 -14 0 -8 -9 -17 -19
-21 -11 -3 -27 -17 -36 -31 -9 -14 -33 -44 -53 -67 -36 -40 -36 -41 -6 -20 17
12 37 29 44 38 7 8 19 15 26 15 8 0 31 10 52 23 97 61 90 37 -11 -33 -40 -28
-84 -59 -98 -71 l-26 -21 -51 26 c-28 14 -95 43 -149 65 -54 22 -124 54 -156
71 l-57 32 -138 -5 c-75 -3 -207 -10 -292 -16 -85 -7 -163 -12 -173 -12 -9 0
-15 -4 -12 -9 3 -4 -2 -11 -11 -14 -22 -8 -26 -8 -19 4 7 12 -5 13 -23 1 -24
-15 11 -33 42 -21 49 18 62 10 17 -10 -36 -17 -47 -18 -60 -8 -14 11 -14 11
-4 -3 10 -12 10 -18 1 -27 -21 -21 8 -14 63 14 71 35 70 26 -2 -16 -32 -18
-59 -38 -59 -43 0 -5 17 2 38 14 40 25 49 30 100 54 51 25 37 10 -29 -30 -33
-21 -58 -40 -55 -42 3 -3 17 2 31 11 14 9 37 21 53 26 25 9 26 9 8 -5 -27 -21
-16 -27 30 -17 49 10 84 5 63 -10 -10 -7 -7 -8 11 -4 14 3 36 8 50 12 21 5 23
4 7 -6 -9 -6 -15 -15 -12 -21 3 -5 0 -6 -8 -4 -14 6 -157 -101 -157 -117 0
-11 4 -8 90 51 l65 45 -77 -83 c-43 -47 -78 -89 -78 -95 0 -6 34 26 76 72 42
45 80 82 85 82 5 0 -15 -33 -45 -72 -56 -76 -91 -136 -83 -145 3 -2 30 34 61
81 30 47 58 86 60 86 3 0 -7 -28 -21 -62 -34 -83 -44 -118 -33 -118 5 0 14 17
21 38 28 88 77 167 130 212 29 25 56 44 59 43 3 -1 12 5 20 12 14 12 16 12 16
-5 0 -10 -2 -17 -4 -15 -6 5 -26 -22 -81 -108 -24 -37 -41 -70 -39 -73 3 -3
27 26 54 63 27 37 67 88 90 113 23 25 44 52 47 60 4 12 6 12 6 -2 1 -9 -33
-60 -75 -113 -41 -53 -74 -101 -72 -107 2 -6 23 14 46 43 61 79 146 168 131
139 -6 -14 -30 -51 -51 -83 -48 -70 -45 -87 3 -21 45 62 141 165 147 159 3 -3
14 2 24 12 28 25 35 6 8 -22 -27 -29 -42 -32 -34 -7 5 14 4 14 -4 2 -6 -8 -8
-18 -5 -24 3 -5 1 -6 -5 -2 -6 3 -26 -18 -46 -51 -45 -71 -46 -91 -3 -38 54
68 119 135 130 135 6 0 1 -10 -11 -23 -39 -41 -23 -42 21 -2 l42 40 -39 -42
c-21 -23 -43 -41 -49 -40 -12 3 -99 -142 -94 -157 2 -6 19 14 39 44 46 73 146
180 167 180 11 0 5 -9 -17 -26 -33 -27 -107 -125 -136 -182 -27 -53 -13 -60
17 -10 33 57 125 158 140 155 6 -1 11 4 12 12 0 7 11 20 25 29 l25 14 -24 -19
c-15 -13 -19 -22 -12 -24 7 -3 -2 -17 -21 -34 -18 -16 -27 -23 -20 -15 15 18
16 38 1 23 -22 -22 -109 -187 -109 -205 0 -7 15 14 33 47 17 33 65 94 105 135
42 42 62 59 47 37 -15 -21 -26 -40 -23 -43 3 -2 13 7 22 20 9 14 26 30 37 37
20 10 21 10 7 -10 -19 -27 -64 -62 -71 -55 -6 6 -81 -118 -97 -161 -19 -51 -2
-37 31 24 35 67 142 191 165 191 7 0 -3 -16 -24 -36 l-37 -35 50 30 c27 16 53
27 59 24 5 -3 -2 -12 -16 -19 -24 -12 -78 -81 -78 -99 0 -4 16 9 36 31 l36 39
-32 -43 c-17 -23 -36 -39 -41 -36 -12 7 -79 -136 -79 -168 0 -15 15 5 40 57
41 81 115 179 130 170 4 -3 13 2 20 10 9 11 9 15 1 15 -7 0 -9 4 -6 10 7 12
35 14 35 3 -1 -5 -16 -26 -36 -48 -21 -25 -32 -32 -28 -20 6 20 5 20 -10 1
-21 -26 -106 -191 -106 -206 0 -27 25 -1 38 41 17 50 37 82 101 158 25 30 47
49 49 42 2 -6 8 -8 14 -5 6 4 5 -2 -1 -15 -14 -25 -26 -28 -17 -3 4 10 -2 7
-14 -8 -35 -44 -102 -186 -98 -206 4 -15 9 -10 22 21 30 73 58 120 96 165 51
59 59 48 14 -19 -35 -52 -84 -152 -84 -171 0 -6 5 -10 10 -10 6 0 10 6 10 13
0 25 68 152 94 176 43 41 41 16 -6 -56 -48 -72 -74 -130 -65 -139 3 -3 18 18
33 48 15 29 37 67 50 84 13 17 24 36 24 42 0 7 5 12 11 12 6 0 9 -3 7 -7 -65
-137 -88 -187 -88 -194 0 -4 -17 -6 -37 -3 l-38 4 30 -14 c38 -19 27 -19 -55
-1 -78 17 -124 19 -115 5 4 -7 -2 -9 -17 -6 -62 13 -122 17 -113 8 6 -6 19
-12 30 -15 11 -3 -7 -5 -40 -6 -97 -2 -195 -13 -195 -22 0 -5 53 -8 118 -8 82
1 108 4 87 10 -23 6 -19 7 19 4 27 -3 58 -6 70 -6 44 -3 -95 -18 -227 -25 -76
-4 -140 -11 -143 -15 -3 -5 14 -9 38 -10 34 -1 26 -4 -40 -15 -117 -19 -140
-37 -42 -31 63 4 69 3 35 -5 -78 -19 -165 -50 -165 -59 0 -12 0 -12 50 6 69
24 57 11 -21 -24 -84 -36 -87 -55 -4 -21 31 12 58 20 61 17 3 -3 -24 -22 -60
-42 -36 -20 -68 -41 -71 -46 -10 -15 81 28 126 60 23 17 51 31 63 30 16 0 11
-5 -17 -18 -49 -23 -72 -46 -38 -38 15 4 20 2 14 -4 -5 -5 -24 -11 -41 -14
-39 -4 -87 -33 -126 -74 -40 -41 -16 -40 31 2 38 33 92 62 100 53 3 -2 -12
-12 -32 -21 -50 -25 -135 -103 -135 -126 0 -26 15 -24 34 6 9 13 25 29 35 35
17 8 15 1 -11 -49 -17 -32 -28 -65 -26 -72 3 -8 16 12 31 44 14 31 28 57 31
57 3 0 -4 -26 -15 -57 -11 -32 -18 -65 -16 -73 5 -18 5 -16 32 73 9 32 18 57
21 55 2 -3 -1 -20 -6 -39 -25 -86 -5 -73 24 16 47 147 74 184 41 58 -25 -95
-16 -115 11 -24 25 84 50 143 39 91 -12 -58 -22 -156 -17 -165 3 -5 11 25 18
66 7 41 22 95 34 120 17 36 19 39 15 14 -3 -16 -7 -73 -10 -125 l-4 -95 13 85
c20 123 35 180 52 204 15 20 16 20 10 1 -28 -100 -48 -270 -29 -251 4 4 10 39
14 79 7 70 36 183 44 175 3 -2 0 -31 -5 -64 -6 -32 -9 -86 -9 -119 l1 -60 9
50 c5 28 13 75 18 106 9 56 50 164 58 155 3 -3 -2 -35 -10 -73 -9 -37 -19
-106 -23 -153 -3 -47 -11 -94 -16 -104 -9 -16 -7 -18 6 -13 50 21 43 14 -19
-19 -79 -41 -80 -42 -73 -49 3 -3 35 11 71 30 69 37 82 41 72 25 -9 -15 11
-12 24 3 12 16 90 41 99 33 8 -8 -87 -48 -117 -50 -30 -1 -221 -104 -221 -119
0 -5 12 -1 28 9 51 34 165 86 196 89 17 1 40 6 51 9 11 3 2 -3 -20 -14 -22
-11 -46 -20 -54 -20 -18 0 -155 -74 -198 -107 -52 -38 -38 -47 15 -9 43 31
163 96 177 96 4 0 3 -4 0 -10 -8 -13 1 -13 28 2 20 10 21 10 8 -6 -9 -10 -23
-15 -34 -12 -29 7 -282 -162 -266 -179 4 -3 22 7 40 23 60 51 191 132 215 132
3 0 -45 -34 -107 -76 -114 -76 -159 -111 -159 -125 0 -4 50 26 111 68 61 41
113 73 116 70 3 -3 -14 -17 -36 -31 -23 -15 -41 -30 -41 -35 0 -5 -7 -11 -16
-13 -18 -3 -146 -117 -184 -163 l-25 -30 30 22 c17 11 41 33 55 48 14 15 52
48 85 73 33 25 66 52 73 60 11 14 12 14 12 0 0 -9 -28 -37 -62 -61 -105 -75
-247 -237 -209 -237 7 0 94 98 146 165 16 19 16 19 5 -3 -6 -12 -30 -46 -54
-75 -58 -72 -73 -96 -81 -136 -9 -40 7 -35 36 13 25 41 24 26 -1 -24 -23 -45
-27 -74 -5 -47 13 18 14 17 17 -10 3 -25 5 -23 20 22 l16 50 2 -60 2 -60 13
73 c7 41 15 76 18 78 2 2 2 -31 -1 -73 -6 -94 6 -92 17 4 l8 68 2 -60 c4 -106
19 -109 21 -5 2 122 18 177 19 69 1 -42 4 -91 7 -108 14 -66 19 -25 16 110 -5
166 12 215 21 62 5 -92 35 -222 44 -196 2 6 -1 29 -7 50 -6 21 -13 103 -15
183 -4 154 -3 152 21 -35 8 -66 20 -124 26 -130 7 -7 8 1 3 29 -12 71 -25 210
-24 266 l1 55 9 -40 c4 -22 15 -87 24 -145 9 -58 23 -118 31 -135 l14 -30 -5
30 c-28 173 -35 231 -34 300 l1 80 10 -50 c45 -230 60 -300 69 -317 19 -36 19
-12 -1 68 -23 94 -52 346 -41 357 5 5 12 -18 16 -50 12 -104 46 -266 61 -296
22 -41 30 -26 11 20 -18 45 -33 150 -43 283 -7 115 8 112 25 -5 21 -140 72
-308 88 -292 2 3 0 14 -5 24 -13 24 -49 206 -62 313 -12 103 -12 110 -1 110 4
0 11 -28 14 -62 7 -71 37 -189 69 -275 31 -83 33 -52 3 47 -14 46 -32 135 -41
197 -14 96 -15 118 -4 141 13 26 14 25 21 -38 12 -98 59 -310 74 -339 19 -34
18 -17 -1 44 -32 104 -57 386 -35 399 4 3 11 -29 14 -72 9 -115 85 -398 102
-380 3 2 -6 36 -19 74 -13 38 -32 105 -41 149 -17 83 -32 254 -22 245 4 -3 18
-60 32 -127 27 -129 53 -213 80 -259 20 -35 15 -12 -13 66 -41 111 -77 360
-53 360 6 0 11 -15 11 -34 0 -69 91 -378 107 -362 3 3 -4 33 -16 68 -25 76
-47 180 -56 268 -3 36 -8 72 -11 81 -3 9 3 19 11 23 13 4 15 1 10 -14 -13 -42
57 -314 92 -357 14 -17 14 -17 8 2 -51 143 -76 252 -74 330 0 31 8 11 34 -86
29 -111 67 -209 80 -209 2 0 -7 29 -20 64 -28 75 -58 223 -53 269 2 24 13 -2
42 -106 21 -75 43 -140 49 -144 6 -4 8 3 3 18 -45 155 -69 308 -47 295 6 -4
12 -17 12 -29 1 -15 4 -10 10 13 7 31 8 30 5 -14 -4 -49 23 -166 51 -219 26
-50 26 -21 0 55 -22 66 -47 221 -33 208 3 -3 22 -53 41 -110 20 -58 41 -109
47 -115 8 -7 9 -4 3 10 -30 73 -61 235 -45 235 5 0 10 -11 10 -24 0 -34 38
-154 52 -162 8 -5 9 -1 4 12 -19 48 -37 137 -34 167 2 27 8 16 32 -61 16 -51
35 -97 43 -103 15 -13 18 2 2 18 -14 14 -39 110 -38 148 0 25 4 20 23 -30 34
-88 37 -95 46 -95 4 0 0 21 -10 48 -17 45 -33 122 -25 122 2 0 11 -25 19 -54
9 -30 21 -58 28 -62 8 -5 9 -2 3 12 -13 32 -19 124 -7 124 7 0 9 -13 5 -34 -4
-28 -1 -39 21 -61 33 -32 33 -65 2 -102 -14 -16 -28 -42 -31 -56 -6 -23 -1
-33 30 -63 37 -34 37 -35 26 -78 -6 -24 -13 -51 -17 -60 -14 -36 28 -2 51 43
l25 46 -6 -85 c-6 -78 -6 -84 9 -71 9 7 21 30 27 50 11 40 14 314 3 324 -3 4
-12 2 -20 -4 -7 -6 -13 -8 -14 -3 -1 5 -5 -2 -9 -16 l-8 -25 -1 29 c-1 24 -3
27 -16 16 -16 -14 -20 -3 -6 19 7 10 21 12 56 8 62 -9 65 -12 64 -55 -1 -33
-2 -34 -8 -12 -11 37 -19 -186 -31 -835 -11 -579 -2 -1316 20 -1715 27 -478
93 -972 166 -1250 44 -165 49 -190 36 -190 -5 0 -13 21 -17 48 -8 57 -54 245
-62 252 -5 5 4 -92 13 -140 5 -24 5 -25 -11 -5 -15 19 -16 18 -10 -25 l5 -45
-15 40 c-8 22 -22 54 -31 71 -9 17 -15 37 -12 44 2 7 -7 24 -19 37 -30 29 -31
29 -26 -1 4 -19 -1 -26 -24 -35 l-28 -11 32 6 c26 4 35 1 48 -20 22 -34 31
-135 15 -166 -11 -20 -10 -22 4 -17 23 9 22 -49 -1 -62 -16 -9 -14 -10 9 -11
15 0 39 5 53 12 23 10 24 13 9 29 -12 13 -14 28 -9 58 10 59 25 60 25 2 0 -48
13 -75 23 -49 4 10 6 10 6 1 1 -7 15 -19 31 -28 18 -9 30 -23 30 -36 0 -19 1
-19 31 -3 23 11 30 21 26 35 -6 22 3 25 21 7 8 -8 55 -15 120 -19 l107 -6
-105 -1 c-110 -2 -148 -13 -120 -33 14 -9 107 -7 215 6 32 4 35 3 15 -4 -18
-6 7 -9 84 -10 l108 -1 -15 24 c-11 16 -13 26 -5 34 10 10 26 282 15 272 -3
-3 -12 -45 -21 -95 -23 -125 -33 -152 -59 -159 -33 -9 -37 -8 -37 9 0 8 5 15
10 15 6 0 10 -5 10 -11 0 -5 5 -7 10 -4 6 3 10 25 10 48 -1 39 -2 41 -15 23
-19 -26 -19 -20 5 49 11 32 20 65 20 74 0 29 -18 -9 -45 -94 -33 -106 -36
-110 -71 -97 l-29 10 28 7 c29 8 37 25 12 25 -23 0 -37 47 -30 99 12 88 27
146 43 158 20 16 56 17 46 2 -7 -12 55 -7 201 18 50 8 158 19 240 24 83 4 157
9 165 10 8 2 -48 5 -125 9 -147 7 -296 -3 -502 -35 -62 -10 -113 -22 -113 -27
0 -6 11 -7 25 -4 32 8 32 2 0 -116 -29 -109 -28 -99 -12 -96 8 2 13 -12 15
-39 2 -26 -1 -43 -7 -43 -6 0 -11 9 -11 20 0 24 -6 25 -27 5 -21 -21 -38 -8
-18 14 19 22 40 177 27 211 -7 18 -10 3 -16 -65 -13 -178 -34 -174 -35 8 -1
90 -3 107 -17 107 -13 0 -14 -12 -8 -84 6 -77 -1 -165 -12 -153 -2 2 -11 47
-19 100 -8 53 -20 105 -27 116 -10 17 -9 29 6 71 24 65 13 78 -14 16 -12 -25
-25 -44 -30 -41 -36 22 -140 782 -160 1165 -18 370 -54 2426 -42 2465 7 23 10
6 14 -80 6 -110 24 -185 46 -193 15 -5 15 15 1 133 -15 130 -6 141 13 16 14
-91 29 -134 42 -120 2 2 -1 57 -6 123 l-9 119 25 26 c15 15 26 32 26 38 0 6 9
22 20 36 11 14 19 31 18 38 -2 7 2 13 9 14 6 0 15 3 19 8 4 4 11 7 16 7 5 0
-4 -17 -21 -37 -17 -21 -31 -43 -31 -49 0 -6 -9 -23 -20 -36 -11 -14 -24 -39
-30 -54 -10 -29 -10 -29 7 -8 10 12 37 47 61 78 24 31 48 56 54 56 6 0 1 -12
-13 -27 l-24 -27 29 22 c16 12 36 22 44 22 9 0 -7 -15 -35 -32 -62 -40 -89
-73 -115 -141 l-20 -52 69 66 c68 66 125 103 145 97 6 -2 -12 -19 -40 -37 -54
-34 -152 -134 -152 -154 0 -6 28 16 63 49 34 33 70 66 80 74 15 11 17 11 11
-4 -8 -20 -1 -20 39 0 l32 17 -25 -28 c-14 -15 -36 -32 -50 -37 -15 -6 -20
-12 -12 -15 19 -7 14 -22 -5 -18 -10 2 -22 4 -27 4 -5 1 1 12 14 26 13 14 21
28 17 31 -7 7 -94 -82 -109 -111 -6 -12 6 -5 28 16 44 41 69 43 50 4 -6 -13
-19 -26 -30 -29 -10 -2 -15 -9 -12 -14 3 -6 -5 -17 -19 -26 -14 -9 -25 -22
-25 -28 0 -7 36 23 79 66 44 44 79 84 78 90 -1 6 7 11 18 12 11 0 28 4 38 8
10 5 21 5 24 2 4 -4 -3 -9 -15 -13 -12 -3 -20 -9 -17 -13 3 -5 0 -12 -6 -16
-8 -5 -9 -3 -4 7 8 12 6 12 -8 0 -9 -7 -14 -17 -11 -22 3 -5 0 -9 -5 -9 -27 0
-172 -162 -158 -176 2 -3 14 10 25 28 12 18 42 54 69 79 82 78 179 146 127 88
-18 -20 -18 -20 11 -14 l30 6 -34 -30 c-19 -17 -38 -28 -43 -25 -4 3 -8 -1 -8
-8 0 -7 -27 -44 -60 -81 -33 -37 -65 -78 -71 -90 -7 -12 8 1 32 28 62 70 129
133 162 151 27 14 27 14 15 -6 -7 -11 -17 -20 -23 -20 -11 0 -90 -88 -144
-160 l-33 -45 38 40 c20 22 59 63 84 90 26 28 58 56 71 64 13 8 0 -12 -29 -44
-55 -60 -128 -161 -138 -192 -4 -10 11 5 32 33 75 99 167 204 178 204 6 -1 1
-9 -11 -19 -31 -26 -29 -35 5 -27 l27 7 -25 -20 c-15 -12 -27 -16 -31 -9 -4 7
-9 7 -13 -1 -4 -6 -2 -11 5 -11 7 0 0 -13 -16 -30 -15 -16 -31 -27 -35 -25 -9
5 -84 -107 -99 -147 -16 -42 -6 -34 30 24 36 59 160 188 180 188 8 0 2 -11
-14 -26 -15 -14 -25 -29 -22 -33 2 -5 -3 -15 -12 -22 -12 -10 -14 -10 -9 -1 4
7 2 12 -4 12 -6 0 -17 -15 -25 -34 -8 -18 -21 -36 -30 -40 -8 -3 -21 -18 -27
-33 -7 -15 -20 -39 -29 -53 -9 -14 -20 -36 -23 -50 -4 -14 11 3 33 38 23 35
38 68 35 74 -4 6 -2 8 4 5 5 -4 22 7 36 24 14 16 31 27 36 24 6 -4 17 -1 25 5
8 7 20 10 27 8 7 -3 19 2 27 10 9 9 17 10 19 4 1 -5 12 -8 22 -5 15 4 39 -14
94 -68 40 -41 83 -90 95 -109 12 -21 21 -28 21 -18 0 30 -140 185 -210 232
-15 10 -19 16 -10 16 9 0 38 -20 65 -43 28 -24 60 -49 73 -56 12 -7 21 -15 18
-19 -3 -4 11 -26 31 -47 20 -24 32 -32 28 -20 -4 11 -8 27 -9 35 -5 31 -36 89
-56 103 -11 7 -17 16 -14 19 7 8 -121 144 -171 181 -31 23 -34 28 -15 22 39
-12 73 -40 151 -123 56 -61 68 -70 54 -42 -9 19 -27 43 -39 52 -11 10 -16 18
-9 18 9 0 8 12 -3 44 -15 42 -14 48 6 93 25 58 79 143 90 143 4 0 -12 -45 -37
-100 -51 -113 -53 -159 -3 -60 52 103 80 144 92 132 7 -7 3 -19 -11 -39 -27
-37 -83 -190 -79 -217 2 -13 12 5 27 49 22 69 73 169 92 181 5 3 1 -14 -10
-38 -41 -87 -92 -230 -86 -236 3 -3 9 5 12 18 11 42 113 240 124 240 6 0 8 -3
6 -7 -3 -5 -25 -60 -50 -123 -49 -127 -64 -180 -49 -180 5 0 13 17 17 37 7 37
76 200 103 241 24 37 23 19 -2 -34 -20 -43 -106 -277 -106 -290 0 -3 4 -3 9 1
5 3 19 36 32 73 27 82 97 237 104 230 3 -3 -10 -45 -29 -94 -40 -105 -69 -209
-63 -233 5 -20 9 -10 26 64 13 55 109 260 118 252 3 -3 -11 -43 -30 -89 -66
-153 -106 -301 -78 -284 5 4 12 25 16 49 8 51 105 257 112 239 4 -10 11 -5 24
15 10 15 19 24 19 20 0 -14 -32 -57 -40 -52 -4 2 -26 -41 -48 -98 -52 -133
-64 -173 -60 -194 2 -11 12 5 22 37 20 59 112 260 119 260 2 0 -11 -37 -29
-82 -44 -111 -87 -261 -82 -290 5 -27 7 -23 37 87 20 73 118 291 127 282 2 -2
-5 -30 -16 -63 -26 -74 -76 -247 -85 -294 -14 -67 13 -16 33 65 18 73 90 260
97 253 2 -2 -10 -42 -26 -89 -32 -96 -59 -217 -58 -257 0 -15 7 0 14 33 15 70
52 169 89 243 34 67 42 67 15 0 -46 -114 -89 -280 -89 -341 0 -18 2 -19 10 -7
5 8 10 25 10 36 0 45 53 201 85 252 33 52 34 53 33 23 -1 -17 -5 -31 -9 -31
-11 0 -35 -87 -54 -194 -18 -104 -19 -126 -5 -126 6 0 10 13 10 29 0 34 46
219 65 264 19 44 18 33 -5 -59 -11 -43 -23 -126 -25 -184 l-5 -105 20 109 c19
106 58 251 65 244 2 -2 -5 -38 -15 -81 -24 -100 -37 -281 -21 -291 8 -5 11 10
11 51 0 59 29 207 49 253 10 21 11 19 6 -20 -12 -103 -18 -323 -8 -317 6 4 13
64 15 134 8 199 25 208 22 12 l-3 -164 10 115 c14 161 29 164 30 5 0 -72 4
-139 9 -150 5 -12 7 36 4 115 l-3 135 13 -100 c15 -108 34 -190 42 -182 3 3 1
22 -5 43 -5 22 -12 71 -15 109 l-6 70 20 -82 c10 -46 24 -91 30 -100 10 -16
10 -16 6 2 -19 74 -17 80 9 32 40 -74 41 -50 2 34 -19 41 -37 85 -40 99 -6 24
-6 24 18 -4 14 -16 22 -33 19 -37 -3 -5 0 -9 5 -9 6 0 16 -20 22 -45 6 -25 15
-48 20 -51 17 -10 9 17 -25 92 -19 41 -33 74 -31 74 2 0 12 -15 24 -33 12 -19
21 -25 21 -16 0 19 -71 133 -108 172 -14 15 -21 27 -15 27 18 0 9 31 -14 49
-11 9 -25 31 -32 50 -9 29 -9 32 4 21 8 -7 12 -16 10 -21 -3 -4 9 -24 27 -45
18 -20 34 -46 35 -57 2 -12 14 -33 27 -47 13 -14 31 -38 41 -53 10 -15 20 -26
22 -23 5 4 -61 137 -87 176 -10 14 -35 52 -56 85 -21 33 -61 82 -89 110 -96
94 -180 171 -215 197 -41 30 -237 120 -330 153 -36 12 -111 43 -167 68 -56 25
-140 58 -187 73 -78 25 -85 30 -90 58 -4 17 -20 43 -36 58 -36 32 -36 37 -8
73 20 26 22 27 35 9 12 -16 13 -16 13 -1 0 24 15 21 28 -5 9 -19 11 -20 11 -5
1 24 21 11 21 -13 0 -10 5 -22 10 -25 6 -4 10 8 10 30 0 20 -4 34 -9 30 -14
-8 -25 15 -13 27 21 21 42 -11 43 -66 0 -28 3 -44 6 -36 3 8 11 18 17 22 7 5
7 19 -1 50 -6 23 -10 45 -7 47 9 10 15 -10 20 -65 3 -33 8 -70 10 -84 5 -22 7
-23 16 -7 5 10 12 51 15 92 3 41 10 72 14 69 5 -3 9 -47 10 -97 0 -109 16 -91
26 31 9 102 26 68 21 -43 -1 -46 0 -81 3 -79 9 5 29 88 29 121 0 15 5 35 11
43 7 11 9 -13 6 -85 -4 -96 -3 -98 11 -65 8 19 20 71 27 115 l12 80 8 -48 c4
-27 3 -79 -3 -119 -6 -40 -9 -74 -8 -76 8 -7 38 87 55 173 13 64 20 81 22 60
5 -36 -7 -199 -17 -239 -4 -19 -3 -27 3 -23 14 9 44 118 53 196 7 63 7 61 10
-49 1 -63 5 -128 9 -145 l7 -30 8 35 c5 19 12 77 16 130 l7 95 2 -135 c2 -173
19 -154 28 31 8 166 23 143 31 -46 7 -176 24 -132 26 67 0 80 4 144 9 141 4
-2 8 -21 8 -41 l2 -37 6 35 c8 40 4 -187 -4 -270 -4 -38 -3 -50 4 -39 17 26
34 199 28 282 -6 84 7 106 19 31 8 -55 -4 -266 -17 -303 -9 -25 -8 -25 6 -6 9
11 20 36 26 57 13 48 29 236 22 254 -3 8 -2 22 1 31 15 38 26 -14 26 -122 0
-106 -10 -199 -26 -239 -5 -13 -4 -17 4 -12 24 14 44 113 49 244 4 97 9 130
17 122 7 -7 11 -75 11 -200 0 -232 16 -239 25 -10 4 88 10 163 14 167 5 5 6
-76 4 -180 -2 -103 0 -181 4 -173 15 26 28 151 28 271 0 95 3 117 13 107 16
-17 23 -351 7 -381 -7 -14 -7 -21 0 -21 23 0 33 62 37 220 2 91 3 170 3 175 1
6 5 2 11 -8 18 -31 23 -293 7 -369 -16 -74 -6 -94 13 -25 20 73 29 158 29 277
0 87 3 111 12 102 19 -19 15 -326 -6 -385 -19 -52 -16 -74 4 -36 20 36 40 194
40 309 0 76 3 101 11 93 8 -8 10 -74 8 -212 -2 -110 0 -196 4 -192 17 17 39
206 35 298 -2 50 0 89 4 87 4 -3 9 -76 9 -162 l2 -157 13 100 13 100 -4 -105
c-2 -61 -11 -124 -20 -150 -14 -41 -14 -44 0 -29 24 24 38 141 32 267 -3 63
-3 112 -1 109 3 -2 18 -84 35 -180 34 -205 47 -250 48 -166 1 31 -4 93 -10
138 -6 45 -9 84 -6 87 6 7 55 -195 66 -273 7 -52 8 -55 16 -29 9 32 -6 127
-40 255 -13 47 -22 87 -20 89 5 5 61 -170 89 -277 14 -51 28 -96 31 -99 17
-17 0 102 -26 184 -32 99 -35 138 -5 59 10 -25 22 -43 27 -40 5 4 7 0 4 -7 -3
-7 11 -51 30 -98 19 -46 35 -95 35 -109 0 -20 3 -22 12 -13 12 12 7 44 -17
117 -6 17 -3 16 15 -5 l21 -25 -7 25 c-14 53 -55 144 -80 179 -17 24 -9 19 24
-17 28 -30 61 -74 74 -98 12 -24 26 -44 31 -44 13 0 -30 75 -81 143 -67 88
-69 91 -44 78 12 -6 33 -27 48 -46 14 -19 33 -35 42 -35 22 0 -25 48 -115 117
-40 31 -73 57 -73 60 0 5 72 -26 98 -43 12 -8 22 -10 22 -5 0 21 -93 72 -195
107 -39 13 -39 13 -5 7 19 -3 57 -14 84 -24 28 -10 51 -17 54 -15 2 2 -16 18
-40 35 -37 27 -71 45 -173 92 -39 18 -132 30 -282 36 -100 4 -153 10 -153 17
0 6 -16 42 -35 79 -19 38 -33 72 -30 77 3 5 1 11 -4 15 -6 3 -20 20 -32 38
-17 25 -11 21 29 -18 50 -47 75 -88 30 -49 -20 18 -20 17 2 -13 13 -18 28 -33
33 -33 5 0 3 8 -4 18 -13 15 -12 16 4 3 9 -7 17 -19 17 -25 0 -6 16 -29 36
-51 19 -22 32 -33 28 -25 -19 38 -77 123 -105 155 -17 19 -28 39 -24 45 3 5 0
10 -8 10 -8 0 -20 7 -27 15 -37 44 52 -8 103 -60 51 -52 47 -68 -5 -20 -33 32
-31 28 12 -20 29 -33 57 -59 62 -58 4 2 7 0 7 -5 -3 -20 3 -32 21 -42 30 -16
25 -2 -25 75 l-45 70 62 -65 c64 -68 64 -67 12 16 -18 29 -31 54 -28 56 2 3
-22 29 -53 58 -39 37 -53 55 -43 58 15 5 150 -131 150 -150 0 -6 -10 -3 -22 8
-12 10 6 -16 41 -58 35 -43 65 -78 67 -78 10 0 -22 61 -66 124 -28 40 -50 77
-50 84 0 6 -9 14 -20 17 -11 3 -20 11 -20 17 0 6 6 6 15 -2 8 -7 15 -9 15 -5
0 5 9 0 20 -10 13 -12 16 -21 10 -25 -6 -4 3 -20 22 -41 19 -19 48 -57 66 -86
36 -56 62 -83 62 -64 0 6 -33 60 -74 120 -59 87 -71 111 -58 116 9 3 28 -6 46
-22 20 -18 16 -12 -9 16 -32 35 -35 41 -15 31 34 -18 169 -156 203 -209 38
-57 47 -45 12 16 -32 56 -65 94 -75 88 -4 -2 -22 11 -40 30 -38 39 -31 48 9
13 14 -13 6 -1 -19 25 -26 28 -38 47 -30 47 13 0 13 2 0 11 -13 9 -13 10 0 6
8 -2 15 -8 15 -14 0 -12 60 -64 67 -58 3 3 13 -5 24 -17 l19 -23 -25 20 c-13
11 9 -17 50 -62 73 -81 106 -103 60 -40 -14 17 -40 55 -58 82 -19 28 -45 56
-59 63 -14 8 -22 16 -19 20 10 10 121 -74 118 -89 -2 -8 -1 -11 3 -7 4 4 29
-16 56 -44 27 -28 52 -48 56 -44 10 9 -103 121 -160 159 -48 31 -49 45 -1 33
16 -4 22 -11 18 -19 -4 -7 -4 -9 0 -5 5 4 26 -3 47 -14 41 -21 51 -31 22 -22
-16 5 -16 4 0 -6 11 -7 24 -13 31 -14 7 -1 25 -14 41 -29 17 -15 34 -27 39
-27 18 0 -39 53 -98 91 -33 22 -57 39 -53 39 3 0 14 3 24 6 11 4 14 3 6 -3 -7
-5 11 -18 54 -35 41 -17 61 -22 53 -13 -18 21 -97 64 -160 85 -40 13 -48 19
-29 19 15 1 46 -6 69 -14 24 -8 52 -12 63 -9 13 4 17 2 13 -5 -4 -6 0 -11 8
-11 28 0 17 18 -16 29 -57 18 -151 29 -213 24 -51 -3 -57 -2 -40 9 12 8 55 12
113 13 76 0 89 2 75 13 -11 8 -56 12 -127 13 -71 1 -102 4 -86 9 60 19 -46 9
-114 -11 -39 -11 -102 -29 -141 -41 -38 -11 -90 -29 -113 -39 l-44 -20 -59 64
c-32 36 -81 79 -109 97 -41 27 -63 50 -46 50 38 0 160 -99 207 -171 25 -36 35
-15 14 31 -17 37 -77 100 -156 162 -47 37 -23 35 36 -4 64 -43 143 -123 151
-153 6 -26 24 -35 24 -12 0 17 -37 84 -68 124 -15 19 -51 50 -80 71 -30 20
-49 38 -44 40 25 8 178 -109 212 -162 12 -19 20 -25 20 -15 0 31 -131 178
-184 206 -19 10 -25 18 -18 25 7 7 17 6 31 -2 12 -6 27 -8 33 -4 6 4 8 3 4 -4
-3 -6 6 -18 21 -27 16 -9 50 -45 78 -80 50 -64 80 -79 48 -23 -31 52 -93 117
-139 144 -24 14 -44 27 -44 29 0 8 68 -3 86 -13 24 -14 9 -16 -17 -2 -36 20
-19 4 29 -28 50 -32 135 -116 144 -142 3 -8 8 -12 12 -9 15 14 -61 139 -85
139 -7 0 -7 -6 2 -17 8 -9 -5 -4 -29 12 -23 15 -40 30 -37 33 3 3 14 -3 25
-13 11 -10 22 -16 25 -13 8 8 -16 25 -81 58 -32 16 -53 30 -46 30 7 0 35 -12
63 -26 28 -14 53 -23 56 -20 3 2 -18 16 -46 30 -28 15 -51 29 -51 32 0 3 24
-7 53 -23 28 -15 52 -33 52 -40 0 -19 12 -25 19 -8 4 11 -11 26 -55 54 -34 21
-56 41 -51 45 22 13 106 -40 201 -129 52 -48 54 -49 47 -21 -6 26 -5 28 9 16
8 -7 18 -10 21 -8 10 10 -67 65 -157 112 -50 27 -88 50 -86 53 8 8 142 -52
191 -86 26 -17 53 -31 61 -31 8 0 19 -9 25 -21 7 -11 14 -18 17 -15 11 11 -28
58 -43 52 -8 -3 -13 -2 -10 3 8 12 -51 56 -122 92 -42 22 -49 28 -27 24 l30
-5 -32 15 c-39 18 -44 29 -7 15 35 -14 42 -12 20 5 -22 16 -6 20 22 6 9 -5 52
-25 95 -45 42 -19 80 -42 83 -51 7 -18 24 -20 24 -2 0 18 -50 53 -134 94 -39
18 -60 31 -46 27 32 -8 117 -51 153 -76 16 -11 30 -18 32 -16 11 11 -68 71
-121 93 -32 14 -51 25 -42 25 15 0 100 -29 162 -55 14 -6 17 -5 12 3 -5 8 -1
10 11 6 15 -6 15 -4 -2 10 -25 20 -136 56 -179 57 -18 1 -23 3 -13 6 30 8 144
-16 204 -43 31 -13 58 -23 60 -21 8 9 -37 37 -92 57 l-60 21 54 -6 c30 -3 67
-9 84 -12 54 -11 20 13 -45 31 -114 33 -118 36 -33 32 44 -3 95 -10 113 -17
18 -6 36 -9 39 -5 12 12 -73 38 -146 44 -76 6 -76 6 -31 14 107 19 130 21 130
9 0 -6 16 -11 36 -11 31 0 35 2 24 15 -9 10 -33 15 -79 16 l-66 1 50 13 c28 7
66 14 85 14 21 1 31 4 24 11 -8 8 -72 3 -159 -14 -16 -3 -11 1 13 9 24 8 70
17 103 21 32 4 59 10 59 14 0 14 -46 20 -81 10 -19 -6 -41 -10 -49 -10 -27 0
10 18 52 25 36 6 54 25 23 25 -28 0 -124 -41 -166 -72 -24 -17 -38 -24 -30
-15 7 10 36 32 62 49 27 17 47 33 45 35 -4 5 -110 -23 -133 -35 -10 -6 -27
-20 -37 -31 -11 -12 -25 -21 -33 -21 -21 0 -134 -103 -129 -117 3 -7 1 -12 -4
-10 -6 1 -20 -14 -31 -33 l-22 -35 27 30 c26 30 26 30 -4 -32 -31 -63 -47 -81
-37 -43 9 33 -2 23 -24 -25 -12 -25 -25 -45 -29 -45 -11 0 0 52 15 70 24 28
77 130 68 130 -9 0 -49 -62 -44 -69 1 -2 -2 -7 -7 -10 -15 -9 -52 -83 -52
-103 0 -10 -4 -18 -8 -18 -5 0 -17 -18 -27 -40 -10 -22 -20 -38 -23 -35 -2 2
12 39 32 81 39 82 41 88 26 79 -5 -3 -42 5 -82 19 -40 14 -82 27 -93 30 -11 3
-1 3 22 1 23 -3 49 -8 59 -12 12 -4 15 -3 10 6 -5 7 7 5 34 -5 55 -22 62 -11
10 16 -26 13 -74 25 -124 29 l-81 8 78 2 c60 1 90 -4 128 -20 27 -12 52 -19
55 -16 10 10 -74 47 -128 56 l-53 9 70 1 c39 0 85 -3 103 -9 29 -8 32 -7 22 5
-18 22 -76 35 -160 36 -70 1 -72 2 -35 11 22 5 73 8 112 6 61 -3 71 -1 59 10
-8 8 -35 14 -62 14 -63 0 -93 7 -73 18 8 4 25 10 39 14 21 5 20 3 -5 -9 -39
-19 -21 -19 41 0 27 8 64 15 82 15 17 0 32 5 32 11 0 8 -22 10 -70 7 -39 -3
-68 -3 -65 0 3 3 42 15 87 27 79 21 81 23 48 29 -39 8 -69 -2 -170 -58 l-65
-36 38 34 c20 18 37 40 37 49 0 8 26 39 58 68 75 68 14 33 -69 -40 -32 -29
-59 -49 -59 -45 0 4 18 30 41 56 23 27 39 51 36 54 -7 7 -76 -76 -99 -119 -32
-64 -32 -34 0 35 17 34 29 64 27 66 -6 7 -43 -73 -65 -142 -27 -81 -37 -81
-16 0 19 72 15 80 -9 17 -10 -27 -22 -53 -27 -60 -5 -7 -7 -17 -3 -23 4 -6 3
-25 -1 -43 -6 -27 -8 -29 -14 -12 -6 17 -8 14 -15 -15 -4 -19 -18 -61 -31 -92
-27 -63 -30 -83 -12 -72 7 4 8 3 4 -5 -4 -6 -11 -9 -15 -6 -9 5 -35 -60 -47
-115 -10 -49 -36 -101 -48 -97 -12 4 -12 4 5 121 9 60 9 84 0 98 -8 13 -8 18
0 18 9 0 10 24 5 88 -7 98 -34 204 -62 247 l-18 27 93 86 93 87 -1 240 -1 240
687 407 c378 224 688 406 689 405 1 -1 16 -78 33 -171 l32 -169 -27 -28 c-30
-31 -29 -63 3 -67 16 -2 24 -12 28 -35 7 -43 165 -1149 165 -1159 0 -22 32 6
191 164 l173 172 -18 365 c-9 201 -20 407 -23 457 l-6 91 51 29 c46 26 52 33
58 70 3 23 3 57 -1 76 -10 52 -36 127 -45 133 -5 3 -31 -4 -59 -15 l-51 -20
-4 23 c-3 12 -15 114 -27 227 l-21 204 20 16 c12 8 76 51 143 95 360 235 877
763 879 897 0 10 -11 25 -25 34 -47 31 -163 3 -395 -96 -280 -120 -563 -290
-795 -478 l-110 -90 -100 50 c-55 28 -151 77 -213 110 l-112 60 45 34 c38 29
44 38 35 54 -15 28 -104 90 -161 111 l-51 20 -43 -40 -44 -40 -93 43 c-51 24
-221 105 -377 180 -156 75 -289 136 -295 136 -6 0 -60 -22 -121 -48z m-944
-2769 c65 -72 64 -84 -1 -18 -24 25 -40 45 -34 45 6 0 21 -12 35 -27z m-46 -4
c11 -16 1 -19 -13 -3 -7 8 -8 14 -3 14 5 0 13 -5 16 -11z m-12 -46 c-13 -2
-35 -2 -50 0 -16 2 -5 4 22 4 28 0 40 -2 28 -4z m-40 -37 c-120 -16 -112 -27
14 -19 71 4 112 2 116 -4 4 -7 -24 -13 -74 -18 -139 -12 -138 -26 1 -21 l125
5 -89 -14 c-50 -8 -95 -20 -100 -26 -8 -9 -3 -10 19 -5 58 12 183 19 211 11
28 -8 27 -9 -16 -16 -25 -4 -70 -8 -101 -8 -37 -1 -61 -6 -69 -16 -11 -13 -8
-15 14 -15 14 0 26 -4 26 -10 0 -15 -23 -12 -74 11 -69 30 -78 18 -13 -16 88
-46 75 -58 -16 -16 -106 49 -117 52 -117 40 0 -5 16 -17 37 -25 20 -9 59 -31
87 -50 55 -37 76 -44 55 -17 -13 15 -12 15 9 4 32 -17 102 -81 102 -93 0 -5
-21 9 -46 31 -26 22 -50 39 -54 36 -4 -2 -36 7 -71 21 -35 14 -86 34 -114 44
-27 10 -58 21 -67 25 -10 4 -18 3 -18 -2 0 -6 19 -15 43 -22 23 -7 75 -30 115
-52 79 -42 87 -45 76 -28 -7 12 41 -12 71 -35 l20 -16 -20 7 c-11 4 -26 13
-33 20 -15 14 -36 18 -28 5 3 -5 -4 -8 -14 -8 -21 1 -28 -16 -9 -23 7 -2 9 1
4 9 -6 9 -4 11 4 5 9 -5 10 -10 2 -18 -8 -8 -24 -4 -56 12 -56 28 -187 61
-235 60 -26 -1 -13 -6 45 -19 137 -32 141 -39 19 -33 -66 4 -118 2 -128 -4
-13 -7 10 -11 89 -15 97 -5 126 -11 114 -22 -2 -2 -66 -6 -141 -7 -77 -2 -133
-8 -128 -13 4 -4 57 -8 116 -7 60 1 106 0 104 -3 -3 -2 -52 -6 -109 -8 -102
-3 -103 -2 -125 25 -23 28 -52 37 -43 13 4 -10 0 -12 -14 -9 -11 3 -19 9 -17
13 4 10 145 126 310 256 l126 99 74 -4 73 -5 -82 -10z m1633 -131 c-18 -28
-21 -39 -6 -30 6 3 7 -1 3 -10 -4 -11 -8 -13 -13 -6 -4 7 -11 2 -18 -14 -6
-14 -17 -25 -23 -25 -10 0 0 21 42 88 7 12 18 22 23 22 4 0 1 -11 -8 -25z
m-1371 -4 c13 -5 -9 -10 -63 -15 -83 -7 -107 -3 -97 15 7 11 131 11 160 0z
m595 -20 c0 -4 -30 -11 -67 -15 -84 -8 -203 -43 -203 -58 0 -8 -3 -9 -10 -2
-15 15 -2 42 23 50 32 10 176 32 220 33 20 1 37 -3 37 -8z m-570 -21 c-20 -13
-97 -13 -105 0 -4 6 17 10 57 10 44 0 59 -3 48 -10z m953 3 c-7 -2 -21 -2 -30
0 -10 3 -4 5 12 5 17 0 24 -2 18 -5z m-1083 -13 c0 -5 -2 -10 -4 -10 -3 0 -8
5 -11 10 -3 6 -1 10 4 10 6 0 11 -4 11 -10z m-40 -10 c0 -5 -7 -7 -15 -4 -8 4
-15 8 -15 10 0 2 7 4 15 4 8 0 15 -4 15 -10z m20 -45 c35 -26 90 -99 90 -119
0 -6 -7 -3 -14 6 -7 10 -16 16 -19 13 -4 -3 -5 -2 -2 2 3 4 -25 38 -62 76 -66
67 -64 75 7 22z m583 16 c-46 -15 -89 -33 -95 -40 -11 -11 -10 -12 2 -6 12 7
13 6 2 -6 -11 -12 -14 -12 -21 0 -8 13 -26 -26 -60 -131 -7 -21 -17 -38 -22
-38 -5 0 -2 16 6 36 20 49 19 68 -2 24 -27 -59 -26 -10 1 60 14 36 25 56 26
45 0 -18 2 -17 13 5 20 40 116 77 202 78 20 1 1 -9 -52 -27z m-413 10 c-19 -4
-44 -11 -56 -14 -14 -5 -26 -2 -34 8 -11 13 -4 15 56 14 56 -1 62 -3 34 -8z
m248 -3 c-3 -7 -15 -43 -27 -80 -13 -37 -27 -71 -33 -75 -8 -4 -9 0 -5 11 4
10 10 30 12 44 6 26 5 26 -10 -3 l-15 -30 5 35 c6 36 51 110 67 110 6 0 8 -6
6 -12z m1002 4 c0 -5 -7 -17 -15 -28 -14 -18 -14 -17 -4 9 12 27 19 34 19 19z
m-1365 -13 c11 -17 -1 -21 -15 -4 -8 9 -8 15 -2 15 6 0 14 -5 17 -11z m678 4
c-13 -2 -35 -2 -50 0 -16 2 -5 4 22 4 28 0 40 -2 28 -4z m-413 -50 c-11 -17
-11 -17 -6 0 3 10 6 24 7 30 0 9 2 9 5 0 3 -7 0 -20 -6 -30z m390 30 c-28 -3
-39 -7 -31 -12 9 -6 -4 -14 -40 -26 -66 -22 -142 -59 -156 -77 -6 -7 -18 -39
-28 -70 -10 -32 -24 -66 -32 -75 -11 -13 -13 -14 -10 -3 2 8 7 26 11 40 l7 25
-16 -25 -16 -25 7 25 c15 54 44 124 39 95 -3 -24 -3 -26 5 -10 5 11 11 33 15
48 10 48 132 95 240 94 l50 0 -45 -4z m-590 -18 c10 -12 10 -15 -4 -15 -9 0
-16 7 -16 15 0 8 2 15 4 15 2 0 9 -7 16 -15z m110 5 c11 -7 6 -10 -22 -11 -21
-1 -43 -2 -50 -3 -6 -1 -13 5 -15 12 -6 15 64 17 87 2z m-140 -21 c0 -5 -4 -9
-10 -9 -5 0 -10 7 -10 16 0 8 5 12 10 9 6 -3 10 -10 10 -16z m923 4 c-7 -2
-21 -2 -30 0 -10 3 -4 5 12 5 17 0 24 -2 18 -5z m-775 -20 c-16 -2 -40 -2 -55
0 -16 2 -3 4 27 4 30 0 43 -2 28 -4z m520 2 c-2 -3 -38 -14 -79 -24 -41 -11
-96 -29 -122 -40 -61 -26 -77 -27 -52 -2 27 27 160 70 214 71 24 0 42 -2 39
-5z m-618 -15 c0 -5 -2 -10 -4 -10 -3 0 -8 5 -11 10 -3 6 -1 10 4 10 6 0 11
-4 11 -10z m1048 -16 c23 -9 32 -18 26 -24 -6 -6 -34 1 -79 21 -68 29 -68 30
-27 24 24 -3 60 -12 80 -21z m-1368 -15 c18 -12 -44 -1 -75 12 -14 7 -7 7 20
3 22 -3 47 -10 55 -15z m435 11 c-44 -11 -65 -11 -65 0 0 6 21 9 48 9 42 -1
44 -2 17 -9z m502 4 c-3 -3 -12 -4 -19 -1 -8 3 -5 6 6 6 11 1 17 -2 13 -5z
m360 -19 c56 -17 80 -31 71 -41 -4 -3 -26 2 -50 11 -24 10 -65 27 -93 37 -45
17 -46 18 -13 13 20 -3 58 -12 85 -20z m-1140 9 c-3 -3 -12 -4 -19 -1 -8 3 -5
6 6 6 11 1 17 -2 13 -5z m158 -35 c9 -17 14 -33 12 -36 -4 -3 -37 53 -37 64 0
11 12 -1 25 -28z m605 22 c0 -5 -17 -11 -37 -15 -21 -3 -76 -22 -123 -41 -46
-19 -85 -35 -87 -35 -2 0 -3 7 -3 16 0 17 47 39 140 65 72 20 110 23 110 10z
m305 -1 c13 -6 -3 -7 -45 -3 -36 3 -67 7 -69 9 -9 8 95 2 114 -6z m337 3 c-7
-3 22 -23 65 -45 43 -22 85 -47 93 -56 14 -14 13 -14 -10 0 -14 8 -58 32 -98
52 -40 20 -70 41 -67 46 3 6 12 10 18 9 8 0 8 -2 -1 -6z m-1087 -13 c15 -6 6
-9 -32 -9 -29 -1 -53 4 -53 9 0 12 57 12 85 0z m-906 -16 c12 -12 -8 -10 -34
2 l-30 14 30 -6 c16 -3 32 -8 34 -10z m532 -12 c-5 -9 -20 -26 -32 -37 -24
-20 -24 -20 -9 0 36 51 60 72 41 37z m17 -36 c-24 -29 -56 -70 -71 -90 -16
-21 -31 -35 -34 -32 -9 8 33 68 76 111 23 21 41 45 41 52 0 7 7 13 15 13 10 0
1 -18 -27 -54z m72 39 c-14 -8 -19 -14 -12 -15 7 0 -8 -25 -33 -55 -24 -31
-52 -69 -60 -85 -16 -30 -35 -40 -35 -18 0 18 60 107 88 128 13 11 21 20 16
20 -5 1 2 10 15 20 13 11 28 20 35 20 6 -1 0 -7 -14 -15z m-664 -13 c-10 -2
-22 0 -28 6 -6 6 0 7 19 4 21 -5 23 -7 9 -10z m94 8 c13 -8 13 -10 -2 -10 -9
0 -20 5 -23 10 -8 13 5 13 25 0z m374 -55 c-25 -47 -44 -69 -44 -49 0 17 62
115 69 109 2 -3 -9 -29 -25 -60z m56 45 c-6 -11 -13 -20 -16 -20 -2 0 0 9 6
20 6 11 13 20 16 20 2 0 0 -9 -6 -20z m200 11 c0 -5 -9 -11 -21 -14 -16 -4
-18 -3 -8 9 13 16 29 19 29 5z m241 -1 c30 -16 23 -29 -13 -24 -35 5 -81 12
-86 13 -2 1 0 6 3 11 8 13 71 13 96 0z m439 0 c0 -5 -10 -10 -22 -10 -18 0
-20 -2 -9 -9 11 -7 3 -12 -30 -21 -24 -6 -52 -13 -61 -16 -10 -3 -18 -3 -18 0
0 3 21 12 48 20 26 8 39 15 30 15 -31 2 -129 -40 -121 -51 4 -8 0 -9 -11 -5
-11 5 -15 3 -10 -5 5 -8 2 -9 -9 -5 -9 3 -23 0 -31 -8 -7 -8 -16 -11 -20 -8
-3 4 -6 -7 -6 -23 0 -20 7 -32 22 -39 23 -11 65 -61 57 -69 -2 -3 -24 13 -47
35 -24 21 -47 39 -52 39 -6 0 -10 5 -10 11 0 5 -4 8 -10 4 -11 -7 8 55 22 70
5 6 4 -3 -2 -19 -14 -39 -6 -45 10 -6 7 16 20 30 29 30 9 0 21 4 27 10 5 5 41
23 79 39 69 29 145 40 145 21z m268 2 c-13 -5 1 -13 47 -26 38 -11 65 -24 65
-32 0 -10 -9 -10 -47 2 -27 9 -55 18 -63 22 -22 9 -29 10 -84 11 -31 1 -46 5
-40 10 8 8 28 11 124 18 10 1 9 -1 -2 -5z m59 -8 c-3 -3 -12 -4 -19 -1 -8 3
-5 6 6 6 11 1 17 -2 13 -5z m61 -2 c8 -6 2 -9 -18 -9 -20 0 -26 3 -18 9 7 4
15 8 18 8 3 0 11 -4 18 -8z m-1510 -9 c-10 -2 -26 -2 -35 0 -10 3 -2 5 17 5
19 0 27 -2 18 -5z m121 -66 c-29 -55 -49 -78 -49 -59 0 5 9 21 20 35 11 14 20
31 20 38 0 13 31 52 37 46 1 -2 -11 -29 -28 -60z m337 49 c-1 -8 -18 -32 -39
-55 -20 -22 -48 -58 -61 -80 -28 -44 -42 -56 -50 -42 -3 5 11 31 32 57 21 27
42 57 45 67 4 9 10 16 14 15 4 -2 8 0 8 3 0 10 37 49 46 49 4 0 6 -6 5 -14z
m259 -18 c7 -8 0 -9 -24 -4 -18 3 -42 6 -52 6 -11 0 -19 5 -19 11 0 14 80 3
95 -13z m-215 7 c0 -2 -10 -10 -22 -16 -21 -11 -22 -11 -9 4 13 16 31 23 31
12z m618 -7 c-4 -11 -238 -92 -245 -84 -2 2 3 10 11 19 8 8 12 18 8 22 -4 5
-2 5 5 2 6 -4 24 -2 40 4 27 10 159 46 176 48 5 1 7 -4 5 -11z m-1191 -14 c-3
-3 -12 -4 -19 -1 -8 3 -5 6 6 6 11 1 17 -2 13 -5z m425 -31 c-16 -21 -37 -53
-46 -70 -17 -34 -43 -47 -32 -16 9 23 89 122 99 123 5 0 -5 -17 -21 -37z m956
30 c-10 -2 -28 -2 -40 0 -13 2 -5 4 17 4 22 1 32 -1 23 -4z m-884 -88 c-43
-46 -80 -83 -82 -80 -10 10 63 107 101 135 68 50 62 35 -19 -55z m59 12 c-27
-29 -58 -67 -68 -84 -18 -31 -45 -45 -45 -24 0 19 153 181 158 168 2 -4 -18
-31 -45 -60z m227 63 c11 -7 2 -10 -32 -10 -27 0 -48 5 -48 10 0 13 60 13 80
0z m754 4 c18 -7 21 -29 7 -39 -9 -5 -81 32 -81 41 0 6 57 5 74 -2z m-88 -24
c60 -21 82 -35 72 -46 -4 -3 -37 8 -75 24 -37 16 -75 32 -83 35 -10 4 -8 6 6
6 11 1 47 -8 80 -19z m-261 0 c3 -5 -7 -12 -22 -15 -15 -4 -38 -12 -51 -18
-16 -8 -25 -8 -34 1 -9 9 -3 15 23 26 40 18 75 20 84 6z m413 -15 c-3 -3 -9 2
-12 12 -6 14 -5 15 5 6 7 -7 10 -15 7 -18z m343 8 c13 -15 12 -15 -8 -4 -24
12 -29 21 -14 21 5 0 15 -7 22 -17z m-1821 -42 c-6 -12 -17 -21 -25 -21 -11 0
-9 9 8 37 15 27 23 33 25 21 2 -9 -2 -26 -8 -37z m689 28 c13 -8 11 -9 -9 -5
-14 3 -40 6 -57 6 -18 0 -33 5 -33 11 0 14 74 4 99 -12z m-204 1 c-3 -5 1 -10
11 -10 11 0 -11 -29 -62 -82 -44 -47 -85 -81 -94 -80 -8 2 -24 13 -35 24 l-20
21 24 -16 c24 -16 26 -15 95 56 38 40 71 75 72 80 1 4 2 9 3 12 0 3 4 5 7 5 3
0 2 -4 -1 -10z m763 -5 c38 -8 81 -20 96 -26 29 -13 36 -35 9 -25 -100 34
-187 65 -181 65 4 1 38 -6 76 -14z m-306 -40 c-3 -5 2 -4 11 4 25 20 21 -4 -5
-32 l-23 -25 -1 43 c-1 34 2 40 12 31 6 -6 9 -15 6 -21z m108 27 c0 -9 -55
-52 -66 -52 -4 0 5 14 21 30 28 30 45 38 45 22z m400 0 c0 -5 -7 -17 -15 -28
-14 -18 -14 -17 -4 9 12 27 19 34 19 19z m-1360 -23 c0 -6 -4 -7 -10 -4 -5 3
-10 11 -10 16 0 6 5 7 10 4 6 -3 10 -11 10 -16z m595 6 c23 -10 26 -14 10 -14
-29 -1 -65 10 -65 20 0 13 20 10 55 -6z m612 -14 c35 -20 36 -21 8 -15 -16 4
-40 11 -53 15 -13 5 -41 9 -63 9 -27 0 -38 4 -33 11 10 17 95 4 141 -20z m263
-6 c23 -19 39 -35 35 -35 -13 0 -95 52 -95 61 0 17 18 9 60 -26z m-1685 17
c-40 -34 -105 -83 -105 -78 0 7 99 86 108 86 3 0 2 -4 -3 -8z m586 -80 c-41
-37 -79 -69 -85 -71 -21 -8 59 83 96 108 20 14 37 33 38 41 0 11 3 11 12 2 9
-9 -4 -27 -61 -80z m418 54 c-3 -3 -11 5 -18 17 -13 21 -12 21 5 5 10 -10 16
-20 13 -22z m31 -3 c0 -43 -5 -41 -13 5 -4 18 -2 32 3 32 6 0 10 -16 10 -37z
m-880 2 c-7 -9 -15 -13 -18 -10 -3 2 1 11 8 20 7 9 15 13 18 10 3 -2 -1 -11
-8 -20z m668 -2 c-10 -2 -28 -2 -40 0 -13 2 -5 4 17 4 22 1 32 -1 23 -4z m72
-3 c0 -6 12 -15 26 -21 15 -5 24 -12 21 -15 -8 -8 -60 19 -65 34 -2 6 1 12 7
12 6 0 11 -5 11 -10z m448 3 c-10 -2 -26 -2 -35 0 -10 3 -2 5 17 5 19 0 27 -2
18 -5z m-191 -17 c-14 -11 -15 -15 -5 -19 7 -3 2 -6 -11 -6 -23 -1 -24 0 -6
19 10 11 23 20 29 20 6 0 3 -7 -7 -14z m299 -1 c17 -13 16 -14 -13 -4 -34 11
-42 19 -20 19 7 0 22 -7 33 -15z m239 -47 c25 -22 44 -42 42 -45 -4 -3 -120
79 -146 103 -3 2 10 -1 27 -7 17 -6 52 -29 77 -51z m-1015 35 c0 -5 -19 -19
-42 -33 -22 -14 -54 -38 -70 -54 -42 -42 -46 -24 -4 22 43 47 117 88 116 65z
m133 0 c-7 -2 -21 -2 -30 0 -10 3 -4 5 12 5 17 0 24 -2 18 -5z m602 -5 c28
-12 35 -34 8 -23 -10 4 -28 10 -41 12 -12 3 -25 9 -28 14 -8 13 31 11 61 -3z
m-127 -5 c-10 -2 -18 -11 -18 -19 0 -8 -4 -14 -10 -14 -5 0 -10 4 -10 8 0 14
23 32 40 31 11 -1 11 -2 -2 -6z m-588 -22 c0 -12 -129 -106 -135 -99 -10 10
30 51 78 78 59 34 57 33 57 21z m210 -1 c0 -5 -4 -10 -10 -10 -5 0 -10 5 -10
10 0 6 5 10 10 10 6 0 10 -4 10 -10z m320 0 c0 -5 -5 -10 -11 -10 -5 0 -7 5
-4 10 3 6 8 10 11 10 2 0 4 -4 4 -10z m169 -15 c13 -13 13 -15 1 -15 -31 0
-120 25 -120 34 0 14 102 -2 119 -19z m229 -15 c61 -41 92 -70 75 -70 -6 0
-18 10 -29 21 -10 12 -43 35 -71 51 -29 17 -53 32 -53 34 0 11 23 0 78 -36z
m-848 20 c0 -5 -4 -10 -10 -10 -5 0 -10 5 -10 10 0 6 5 10 10 10 6 0 10 -4 10
-10z m75 0 c-3 -5 -17 -10 -30 -10 -13 0 -27 5 -30 10 -4 6 8 10 30 10 22 0
34 -4 30 -10z m98 3 c-7 -2 -19 -2 -25 0 -7 3 -2 5 12 5 14 0 19 -2 13 -5z
m164 1 c-3 -3 -12 -4 -19 -1 -8 3 -5 6 6 6 11 1 17 -2 13 -5z m216 -25 c21 -5
35 -14 32 -20 -4 -5 1 -9 9 -9 9 0 16 -5 16 -11 0 -6 -7 -8 -16 -5 -9 3 -28 9
-42 13 l-27 7 25 7 25 7 -25 2 c-30 2 -72 18 -50 19 8 1 32 -4 53 -10z m-378
-9 c4 -6 -7 -10 -25 -10 -18 0 -29 4 -25 10 3 6 15 10 25 10 10 0 22 -4 25
-10z m150 0 c-11 -5 -27 -9 -35 -9 -13 -1 -13 0 0 9 8 5 24 9 35 9 l20 0 -20
-9z m346 -4 c5 3 9 -2 9 -10 0 -9 -4 -16 -10 -16 -5 0 -10 2 -10 4 0 2 -2 10
-3 18 -2 7 -2 10 0 5 3 -4 9 -5 14 -1z m-576 -6 c-3 -5 -22 -10 -41 -10 -21 0
-33 4 -29 10 3 6 22 10 41 10 21 0 33 -4 29 -10z m335 -6 c0 -11 -5 -14 -16
-10 -9 3 -18 6 -20 6 -3 0 -2 5 1 10 10 16 35 12 35 -6z m343 -5 c43 -22 95
-59 83 -59 -4 0 -25 9 -47 21 -23 11 -42 19 -44 17 -2 -2 22 -17 52 -33 55
-29 123 -87 123 -105 0 -5 -10 -12 -22 -16 -16 -5 -25 -2 -33 12 -5 11 -37 46
-70 79 -33 33 -60 63 -60 67 0 4 -9 14 -20 22 -29 22 -11 19 38 -5z m-773 -3
c0 -3 -4 -8 -10 -11 -5 -3 -10 -1 -10 4 0 6 5 11 10 11 6 0 10 -2 10 -4z m554
-12 c26 -9 45 -18 43 -20 -5 -5 -125 20 -133 29 -13 13 41 7 90 -9z m-341 -1
c-7 -2 -21 -2 -30 0 -10 3 -4 5 12 5 17 0 24 -2 18 -5z m-146 -9 c-3 -3 -12
-4 -19 -1 -8 3 -5 6 6 6 11 1 17 -2 13 -5z m266 -1 c-7 -2 -19 -2 -25 0 -7 3
-2 5 12 5 14 0 19 -2 13 -5z m209 -13 c52 -15 57 -30 6 -19 -48 11 -83 28 -58
29 8 0 32 -5 52 -10z m-455 -6 c-3 -3 -12 -4 -19 -1 -8 3 -5 6 6 6 11 1 17 -2
13 -5z m243 -3 c0 -4 -11 -6 -25 -3 -14 2 -25 6 -25 8 0 2 11 4 25 4 14 0 25
-4 25 -9z m80 5 c0 -11 -19 -15 -25 -6 -3 5 1 10 9 10 9 0 16 -2 16 -4z m352
-37 c46 -37 59 -37 27 -1 l-24 27 32 -29 c17 -15 29 -34 27 -41 -3 -6 2 -18
11 -25 8 -7 15 -17 15 -22 0 -5 -21 9 -47 32 -27 23 -65 52 -85 64 -21 11 -38
25 -38 29 0 14 44 -4 82 -34z m-261 12 c22 -18 22 -20 4 -16 -62 12 -75 16
-75 25 0 17 47 11 71 -9z m-731 5 c0 -2 -7 -7 -16 -10 -8 -3 -12 -2 -9 4 6 10
25 14 25 6z m460 -6 c0 -12 -47 -12 -75 0 -15 6 -8 9 28 9 26 1 47 -3 47 -9z
m98 -5 c8 -7 1 -11 -33 -19 -22 -5 -26 -4 -15 4 13 8 13 10 -2 10 -9 0 -20 5
-24 12 -5 8 3 9 31 5 20 -3 40 -9 43 -12z m388 -16 c47 -29 42 -34 -8 -8 -51
25 -56 29 -38 29 7 0 28 -9 46 -21z m-636 1 c-8 -5 -24 -9 -35 -9 l-20 0 20 9
c11 5 27 9 35 9 13 1 13 0 0 -9z m1155 0 c-3 -5 -12 -10 -18 -10 -7 0 -6 4 3
10 19 12 23 12 15 0z m126 -6 c-18 -8 -47 -18 -65 -21 -28 -6 -30 -5 -17 11 8
9 20 15 28 12 7 -3 23 -1 35 4 38 15 55 9 19 -6z m-1391 2 c0 -7 -63 -43 -89
-51 -15 -5 -21 -4 -17 3 3 6 19 13 35 17 16 3 32 13 35 21 5 12 36 21 36 10z
m410 -6 c0 -5 -7 -10 -16 -10 -8 0 -12 5 -9 10 3 6 10 10 16 10 5 0 9 -4 9
-10z m65 -8 c-3 -3 -11 0 -18 7 -9 10 -8 11 6 5 10 -3 15 -9 12 -12z m298 -24
c26 -17 46 -32 44 -34 -2 -2 -32 10 -66 28 -78 40 -103 27 -36 -21 25 -18 45
-34 45 -36 0 -5 -43 14 -88 38 -32 17 -32 18 -15 43 20 31 45 27 116 -18z
m-208 22 c8 -13 -5 -13 -25 0 -13 8 -13 10 2 10 9 0 20 -4 23 -10z m625 -11
c-16 -11 8 -8 60 7 20 5 23 4 13 -6 -13 -14 -95 -32 -87 -19 9 15 -13 10 -26
-6 -14 -17 -30 -20 -30 -5 0 11 72 51 80 44 2 -3 -2 -10 -10 -15z m-860 1 c12
-8 12 -10 -5 -10 -11 0 -27 5 -35 10 -12 8 -12 10 5 10 11 0 27 -5 35 -10z
m170 -20 c14 -10 33 -27 42 -37 17 -19 17 -21 -6 -42 l-25 -23 -43 41 c-27 25
-37 41 -27 41 8 0 29 -14 46 -30 22 -22 34 -27 39 -19 5 8 -2 19 -17 28 -13 9
-37 29 -54 44 -29 28 -29 28 -5 21 14 -4 36 -15 50 -24z m-430 10 c0 -5 -5
-10 -11 -10 -5 0 -7 5 -4 10 3 6 8 10 11 10 2 0 4 -4 4 -10z m185 0 c4 -6 -10
-10 -35 -10 -25 0 -39 4 -35 10 3 6 19 10 35 10 16 0 32 -4 35 -10z m526 -36
c32 -19 61 -39 64 -44 12 -20 -34 -9 -62 14 -15 13 -46 36 -68 51 -55 37 -10
23 66 -21z m-1527 14 c21 -5 35 -12 32 -15 -7 -7 -124 16 -146 28 -17 10 55 2
114 -13z m1136 12 c13 -8 13 -10 -2 -10 -9 0 -20 5 -23 10 -8 13 5 13 25 0z
m-1261 -16 c10 -9 -65 -3 -78 5 -10 6 1 8 30 4 24 -3 46 -7 48 -9z m1018 10
c-3 -3 -12 -4 -19 -1 -8 3 -5 6 6 6 11 1 17 -2 13 -5z m-142 -23 c-3 -6 -16
-11 -28 -11 -21 1 -21 1 3 15 27 14 36 13 25 -4z m250 9 c8 -13 -25 -13 -45 0
-12 8 -9 10 12 10 15 0 30 -4 33 -10z m786 -14 c-25 -27 -111 -66 -91 -41 7 8
21 15 31 15 11 0 19 4 19 9 0 6 12 16 28 24 38 20 38 20 13 -7z m265 1 c23
-20 25 -25 11 -30 -11 -4 -17 -1 -17 8 0 8 -10 21 -22 29 -12 9 -17 16 -11 16
7 0 24 -10 39 -23z m-2299 7 c-3 -3 -12 -4 -19 -1 -8 3 -5 6 6 6 11 1 17 -2
13 -5z m1128 -4 c-28 -12 -47 -12 -40 0 3 6 18 10 33 9 24 0 25 -1 7 -9z m212
-3 c27 -2 37 -12 28 -27 -5 -8 -14 -7 -31 4 -13 9 -30 16 -38 16 -8 0 -18 5
-22 12 -5 8 0 9 17 4 13 -4 34 -9 46 -9z m-1407 -17 c-19 -11 -42 -19 -50 -19
-8 0 3 9 25 19 53 24 70 24 25 0z m329 4 c8 -7 -64 -2 -89 6 -16 6 -6 7 30 3
30 -3 57 -7 59 -9z m56 6 c3 -5 1 -10 -4 -10 -6 0 -11 5 -11 10 0 6 2 10 4 10
3 0 8 -4 11 -10z m1405 -20 c55 -28 59 -32 48 -50 -12 -18 -13 -18 -32 -2 -38
32 -87 82 -81 82 3 0 32 -14 65 -30z m-480 10 c0 -13 -30 -13 -50 0 -11 7 -7
10 18 10 17 0 32 -4 32 -10z m1155 -10 c10 -11 16 -20 13 -20 -3 0 -13 9 -23
20 -10 11 -16 20 -13 20 3 0 13 -9 23 -20z m-2144 -33 l-34 -32 28 38 c15 21
30 35 33 32 3 -3 -9 -20 -27 -38z m708 30 c-2 -2 -27 -17 -54 -35 -55 -34
-129 -104 -88 -83 12 6 25 16 28 21 7 12 87 52 92 46 2 -2 -19 -25 -46 -51
-28 -27 -48 -51 -46 -54 3 -2 13 3 23 12 10 9 39 26 64 37 26 11 50 25 53 30
3 6 16 15 28 21 12 7 -7 -16 -43 -49 l-65 -61 62 32 c34 18 65 28 70 23 4 -5
4 -10 -2 -12 -5 -2 -25 -13 -44 -25 -36 -22 -37 -38 -1 -19 11 6 31 10 43 8
20 -3 18 -6 -16 -27 -47 -29 -44 -35 8 -16 22 8 56 14 75 14 39 0 43 3 -53
-37 -20 -8 -43 -22 -50 -30 -9 -13 -9 -14 0 -8 9 5 11 2 7 -8 -3 -9 -10 -16
-16 -16 -5 0 -48 30 -95 68 -47 37 -95 74 -107 84 l-21 16 25 27 c14 15 39 33
55 41 17 8 48 25 70 39 22 13 41 22 44 19 2 -2 2 -5 0 -7z m336 3 c3 -5 2 -10
-4 -10 -5 0 -13 5 -16 10 -3 6 -2 10 4 10 5 0 13 -4 16 -10z m133 -4 c34 -18
65 -51 60 -66 -4 -12 -98 57 -98 71 0 12 7 11 38 -5z m206 -2 c14 -5 17 -4 11
5 -6 10 -3 11 14 2 25 -14 28 -22 4 -15 -16 4 -16 4 0 -8 10 -7 26 -18 35 -25
13 -9 14 -14 5 -24 -9 -9 -23 -3 -60 27 -76 60 -77 66 -9 38z m551 -35 l50
-51 -62 47 c-35 27 -63 50 -63 52 0 16 34 -6 75 -48z m-2005 31 c0 -5 -22 -7
-52 -3 -72 8 -73 13 -5 13 32 0 57 -4 57 -10z m933 -7 c-7 -2 -19 -2 -25 0 -7
3 -2 5 12 5 14 0 19 -2 13 -5z m238 -6 c-1 -12 -15 -9 -19 4 -3 6 1 10 8 8 6
-3 11 -8 11 -12z m271 -18 c21 -17 37 -34 34 -37 -3 -3 -1 -11 5 -19 22 -25
-24 -14 -76 19 -37 24 -45 33 -32 36 10 2 34 -6 53 -17 19 -12 38 -21 42 -21
12 1 -40 40 -53 40 -7 0 -18 7 -25 15 -23 27 9 17 52 -16z m288 22 c0 -12 -21
-28 -54 -41 -27 -10 -28 -9 -15 7 12 15 12 16 -4 10 -10 -4 -16 -3 -13 2 3 5
18 9 33 9 15 0 29 5 31 11 4 13 22 15 22 2z m-1925 -16 c-90 -17 -94 -17 -71
0 13 10 41 15 80 14 l61 -1 -70 -13z m1305 3 c0 -7 -5 -20 -11 -28 -9 -13 -10
-13 -6 1 3 9 0 22 -6 28 -8 8 -7 11 6 11 9 0 17 -6 17 -12z m795 -101 c31 -52
1 -21 -44 45 -39 58 -40 60 -8 24 19 -21 42 -52 52 -69z m-935 84 c0 -9 -60
-24 -68 -17 -2 3 -1 9 3 15 7 13 65 15 65 2z m70 -1 c11 -7 5 -9 -22 -8 -21 1
-38 5 -38 10 0 11 41 10 60 -2z m115 0 c3 -5 2 -10 -4 -10 -5 0 -13 5 -16 10
-3 6 -2 10 4 10 5 0 13 -4 16 -10z m92 -16 c38 -29 45 -54 8 -30 -14 9 -30 14
-35 11 -6 -3 -18 -1 -27 5 -15 9 -14 10 7 4 25 -7 25 -7 6 15 -27 30 -1 27 41
-5z m598 -95 c50 -101 58 -129 36 -129 -5 0 -19 28 -31 63 -12 34 -36 88 -51
120 -16 31 -25 57 -20 57 6 0 35 -50 66 -111z m-1555 98 c0 -2 -17 -19 -37
-38 -24 -21 -30 -25 -18 -9 26 33 55 58 55 47z m860 -19 c0 -13 -23 -5 -28 10
-2 7 2 10 12 6 9 -3 16 -11 16 -16z m618 -3 c-3 -3 -9 2 -12 12 -6 14 -5 15 5
6 7 -7 10 -15 7 -18z m-721 -13 c3 -26 -6 -28 -33 -7 -18 13 -18 14 -1 15 11
0 15 5 11 11 -4 7 -1 10 6 7 7 -2 15 -14 17 -26z m354 12 c17 -8 28 -18 25
-21 -3 -4 2 -15 11 -26 17 -19 17 -19 -7 -12 -14 4 -37 14 -52 22 -41 20 -34
9 9 -17 32 -19 34 -23 21 -36 -14 -14 -19 -13 -49 5 -19 12 -38 21 -44 21 -5
-1 7 -10 28 -21 20 -11 37 -24 37 -29 0 -13 -37 -22 -62 -14 -20 6 -21 5 -10
-9 11 -13 10 -17 -7 -26 -29 -16 -39 -13 -43 12 -4 28 14 66 51 105 16 16 26
34 23 38 -7 7 33 1 73 -10 11 -4 2 3 -20 14 -22 11 -34 20 -27 20 7 0 27 -7
43 -16z m219 12 c0 -3 -4 -8 -10 -11 -5 -3 -10 -1 -10 4 0 6 5 11 10 11 6 0
10 -2 10 -4z m-642 -23 c2 -9 -7 -13 -26 -13 -17 0 -37 -3 -46 -6 -9 -3 -16
-2 -16 4 0 12 48 32 69 29 8 -1 16 -8 19 -14z m574 -5 c-7 -7 -12 -8 -12 -2 0
14 12 26 19 19 2 -3 -1 -11 -7 -17z m198 -90 c32 -83 35 -98 20 -98 -5 0 -14
19 -20 43 -5 23 -20 65 -31 92 -31 75 -33 82 -15 61 9 -11 30 -55 46 -98z m19
17 c0 -5 -11 10 -24 35 -13 25 -24 50 -24 55 0 6 11 -10 24 -35 13 -25 24 -49
24 -55z m-553 64 c32 -19 45 -39 26 -39 -11 0 -79 59 -68 60 5 0 24 -9 42 -21z
m490 -44 c33 -76 30 -83 -6 -12 -32 62 -33 67 -24 67 3 0 16 -25 30 -55z
m-601 35 c3 -5 -1 -10 -9 -10 -9 0 -16 5 -16 10 0 6 4 10 9 10 6 0 13 -4 16
-10z m592 -76 c35 -85 37 -94 25 -94 -4 0 -24 41 -44 91 -20 49 -31 88 -25 86
7 -2 27 -39 44 -83z m-562 66 c3 -5 1 -10 -4 -10 -6 0 -11 5 -11 10 0 6 2 10
4 10 3 0 8 -4 11 -10z m781 -52 c59 -80 70 -120 29 -104 -9 3 -25 28 -37 56
-11 27 -24 47 -29 44 -5 -3 -6 2 -3 10 3 8 1 23 -6 33 -9 15 -10 14 -4 -7 7
-28 2 -26 -14 6 -9 17 -8 21 5 21 8 0 35 -27 59 -59z m-696 1 c0 -15 -15 -11
-44 12 -14 11 -24 25 -20 30 6 10 64 -27 64 -42z m404 35 c3 -8 10 -12 16 -9
5 3 7 0 4 -8 -2 -7 4 -35 16 -61 32 -75 22 -88 -12 -16 -42 92 -49 110 -39
110 5 0 12 -7 15 -16z m168 -2 c-4 -11 -1 -13 8 -7 8 5 11 4 6 -3 -4 -6 4 -37
18 -69 14 -34 20 -60 14 -62 -16 -5 -25 10 -42 71 -9 32 -19 63 -22 71 -3 8 1
14 10 14 8 0 12 -6 8 -15z m-842 -2 c-14 -4 -36 -8 -50 -8 -23 -1 -23 0 -5 8
11 5 34 8 50 8 29 0 29 0 5 -8z m94 -5 c3 -8 2 -15 -3 -15 -5 0 -14 7 -21 15
-10 12 -10 15 3 15 8 0 17 -7 21 -15z m560 -11 c5 -14 4 -15 -9 -4 -17 14 -19
20 -6 20 5 0 12 -7 15 -16z m457 -1 c13 -16 12 -17 -3 -4 -10 7 -18 15 -18 17
0 8 8 3 21 -13z m-1084 1 c-3 -3 -12 -4 -19 -1 -8 3 -5 6 6 6 11 1 17 -2 13
-5z m639 -65 c14 -28 23 -57 20 -65 -10 -27 -34 -2 -57 59 -13 34 -25 66 -28
70 -2 5 6 4 18 -2 12 -7 33 -35 47 -62z m-500 52 c-3 -5 -15 -7 -26 -4 -28 7
-25 13 6 13 14 0 23 -4 20 -9z m59 -13 c21 -9 35 -28 20 -28 -12 0 -55 24 -55
32 0 11 4 10 35 -4z m391 -70 c16 -32 18 -48 4 -48 -9 0 -60 90 -60 106 0 13
42 -31 56 -58z m-66 5 c31 -49 36 -63 22 -63 -5 0 -17 16 -27 35 -11 19 -21
32 -24 30 -2 -3 -10 0 -18 6 -18 16 -16 5 7 -33 11 -18 20 -37 20 -41 0 -17
-21 6 -39 41 -14 27 -16 40 -7 48 8 8 15 7 24 -5 11 -14 12 -13 7 7 -10 35 3
26 35 -25z m-550 33 c0 -3 -4 -8 -10 -11 -5 -3 -10 -1 -10 4 0 6 5 11 10 11 6
0 10 -2 10 -4z m213 -16 c9 -9 1 -10 -38 -5 -67 10 -86 29 -22 22 27 -2 54
-10 60 -17z m-498 -14 c0 -24 -15 -50 -15 -27 0 7 -5 9 -12 5 -11 -7 -5 8 15
34 13 16 13 16 12 -12z m245 8 c0 -11 -5 -14 -16 -10 -9 3 -18 6 -20 6 -3 0
-2 5 1 10 10 16 35 12 35 -6z m514 -30 c23 -50 16 -52 -12 -3 -12 21 -19 39
-14 39 4 0 16 -16 26 -36z m-504 -158 c49 -51 60 -56 60 -26 0 11 -5 19 -11
18 -6 -2 -13 2 -16 8 -2 7 9 14 27 16 35 5 37 -5 15 -54 -8 -18 -19 -52 -25
-75 -8 -32 -16 -43 -30 -43 -24 0 -25 15 -5 54 8 15 15 33 15 39 0 7 -53 65
-117 131 -102 103 -107 110 -38 49 44 -39 100 -92 125 -117z m110 160 c0 -14
-4 -28 -10 -31 -6 -4 -10 7 -10 24 0 17 5 31 10 31 6 0 10 -11 10 -24z m70 15
c0 -5 8 -7 18 -4 10 2 24 -3 31 -11 12 -14 10 -16 -12 -16 -14 0 -29 5 -32 10
-3 6 -15 10 -26 10 -10 0 -19 5 -19 10 0 6 9 10 20 10 11 0 20 -4 20 -9z m230
5 c0 -2 -12 -11 -27 -20 l-28 -17 24 20 c23 21 31 25 31 17z m80 -47 c11 -21
16 -39 10 -39 -12 0 -50 59 -50 78 0 22 19 3 40 -39z m-527 27 c7 -18 -1 -26
-25 -26 -21 0 -23 11 -6 28 16 16 25 15 31 -2z m367 5 c0 -5 -18 -24 -40 -41
-22 -17 -40 -27 -40 -21 0 6 9 15 20 21 11 6 18 16 14 22 -7 11 13 28 34 28 6
0 12 -4 12 -9z m-563 -8 c-4 -3 1 -12 11 -19 15 -12 15 -13 -5 -9 -13 2 -25
-1 -28 -6 -4 -5 -10 -7 -15 -4 -8 5 -53 -115 -46 -123 5 -4 27 44 40 85 4 12
13 24 21 27 11 4 10 -5 -5 -44 -11 -28 -15 -50 -10 -50 6 0 10 5 10 12 0 17
51 88 63 88 7 0 7 -4 -1 -12 -7 -7 -12 -19 -12 -27 0 -11 6 -9 19 8 l19 25 51
-39 c28 -22 51 -42 51 -46 0 -4 2 -14 5 -21 4 -10 -4 -14 -30 -14 -40 0 -41 2
-18 28 20 22 11 24 -11 2 -24 -24 -20 -61 9 -80 38 -25 24 -27 -31 -6 -27 11
-68 22 -92 26 -24 3 -61 11 -83 17 -46 14 -45 21 3 106 30 55 48 73 48 51 0
-7 7 -2 16 10 8 12 18 22 21 22 4 0 3 -3 0 -7z m247 -1 c2 -4 -2 -16 -10 -27
-13 -18 -14 -18 -14 8 0 25 13 36 24 19z m442 -35 l15 -32 -25 30 c-26 30 -34
51 -16 40 6 -3 17 -21 26 -38z m-26 -8 c12 -16 19 -33 15 -37 -7 -8 -55 43
-55 59 0 18 19 8 40 -22z m-390 -9 c-8 -5 -19 -10 -25 -10 -5 0 -3 5 5 10 8 5
20 10 25 10 6 0 3 -5 -5 -10z m240 -15 c-13 -14 -27 -25 -32 -25 -9 0 42 49
51 50 3 0 -6 -11 -19 -25z m94 3 c21 -30 7 -46 -15 -17 -10 13 -19 27 -19 32
0 15 19 6 34 -15z m509 -88 c4 -50 3 -62 -2 -35 -13 61 -21 153 -12 130 5 -11
11 -54 14 -95z m94 44 c2 -57 1 -57 -8 -19 -5 22 -11 51 -14 63 -4 17 -2 23 7
20 8 -3 14 -26 15 -64z m436 59 c-7 -2 -21 -2 -30 0 -10 3 -4 5 12 5 17 0 24
-2 18 -5z m-1253 -7 c0 -3 -4 -8 -10 -11 -5 -3 -10 -1 -10 4 0 6 5 11 10 11 6
0 10 -2 10 -4z m560 -22 c0 -8 -4 -12 -10 -9 -5 3 -10 13 -10 21 0 8 5 12 10
9 6 -3 10 -13 10 -21z m51 -60 l-8 -69 -2 55 c0 30 2 66 6 80 11 42 14 7 4
-66z m157 11 l0 -30 -8 30 c-4 17 -8 41 -8 55 l0 25 8 -25 c4 -14 8 -38 8 -55z
m159 -2 c-2 -16 -4 -3 -4 27 0 30 2 43 4 28 2 -16 2 -40 0 -55z m60 55 c-3 -8
-6 -5 -6 6 -1 11 2 17 5 13 3 -3 4 -12 1 -19z m-800 -8 c9 -14 10 -21 1 -26
-10 -7 -38 21 -38 38 0 16 25 8 37 -12z m-317 -11 c0 -6 -4 -7 -10 -4 -5 3
-10 11 -10 16 0 6 5 7 10 4 6 -3 10 -11 10 -16z m1518 0 c34 -10 -68 0 -118
12 -25 6 -17 7 28 3 35 -4 76 -10 90 -15z m-1358 -4 c7 -9 10 -18 7 -22 -8 -7
-37 15 -37 28 0 14 16 11 30 -6z m128 -21 c-10 -10 -28 6 -28 24 0 15 1 15 17
-1 9 -9 14 -19 11 -23z m352 19 c0 -10 -5 -25 -10 -33 -7 -11 -10 -7 -10 18 0
17 5 32 10 32 6 0 10 -8 10 -17z m698 -113 c-1 -29 -2 -26 -8 15 -11 69 -10
126 1 65 4 -25 7 -61 7 -80z m-1256 42 c-5 -34 -7 -62 -5 -62 15 0 43 23 38
31 -4 5 -1 9 6 9 7 0 37 20 67 45 49 41 72 49 72 25 0 -5 -13 -16 -28 -24 -15
-8 -50 -32 -76 -54 -27 -22 -60 -42 -73 -45 l-26 -5 7 66 c7 63 14 88 22 79 2
-2 0 -32 -4 -65z m725 36 c-3 -7 -5 -2 -5 12 0 14 2 19 5 13 2 -7 2 -19 0 -25z
m410 -20 c-2 -13 -4 -5 -4 17 -1 22 1 32 4 23 2 -10 2 -28 0 -40z m-696 -53
c-8 -25 -9 -21 -9 30 0 50 1 55 9 30 5 -17 5 -42 0 -60z m916 18 c-3 -10 -5
-2 -5 17 0 19 2 27 5 18 2 -10 2 -26 0 -35z m-1202 19 c-17 -10 -45 -36 -63
-58 -66 -77 -85 -95 -95 -91 -24 8 -15 27 30 60 26 20 68 52 92 72 24 19 49
35 55 35 6 0 -3 -8 -19 -18z m-620 -43 c15 -15 -34 -10 -93 10 -29 9 -50 19
-47 23 7 7 127 -21 140 -33z m664 15 c2 -10 0 -16 -4 -12 -4 4 -18 3 -31 -2
-28 -11 -31 -4 -7 22 20 22 37 19 42 -8z m-824 -4 c13 -5 14 -9 5 -9 -8 0 -24
4 -35 9 -13 5 -14 9 -5 9 8 0 24 -4 35 -9z m251 -12 c4 -5 -4 -8 -17 -6 -12 1
-24 8 -26 15 -5 14 34 6 43 -9z m1831 -20 c-3 -7 -5 -2 -5 12 0 14 2 19 5 13
2 -7 2 -19 0 -25z m-1577 -3 c0 -8 -7 -15 -15 -15 -8 0 -18 0 -22 -1 -17 -1
-13 20 4 24 31 8 33 7 33 -8z m-614 -62 c-13 -42 -46 -176 -46 -189 0 -3 10
-2 23 1 17 5 19 4 7 -4 -29 -20 -50 -13 -50 17 1 67 60 245 77 229 3 -3 -2
-27 -11 -54z m74 -53 c-15 -60 -27 -90 -36 -90 -18 0 -18 6 6 82 11 34 20 74
20 88 0 20 2 22 10 10 8 -12 10 -12 11 5 0 12 3 15 6 7 3 -7 -5 -53 -17 -102z
m60 106 c0 -2 -8 -10 -17 -17 -16 -13 -17 -12 -4 4 13 16 21 21 21 13z m60 -3
c0 -5 -7 -16 -15 -27 -8 -10 -17 -38 -21 -62 -6 -41 -24 -72 -24 -42 0 25 42
138 51 138 5 0 9 -3 9 -7z m19 -45 c-10 -29 -18 -61 -19 -70 0 -19 -30 -26
-30 -7 0 18 52 129 60 129 4 0 -1 -24 -11 -52z m667 12 c8 0 14 -8 14 -17 0
-13 -7 -10 -30 12 -16 16 -30 33 -30 39 0 6 7 0 16 -12 8 -12 22 -22 30 -22z
m1221 -22 c-2 -13 -4 -3 -4 22 0 25 2 35 4 23 2 -13 2 -33 0 -45z m-2071 -47
c-22 -86 -39 -122 -50 -110 -9 8 23 128 45 170 11 23 22 39 25 37 2 -3 -7 -46
-20 -97z m230 82 c-3 -10 -10 -37 -16 -60 -6 -25 -17 -43 -25 -43 -11 0 -10
12 7 60 11 33 24 60 30 60 5 0 7 -8 4 -17z m70 -23 c-13 -43 -30 -67 -39 -53
-7 12 29 93 41 93 6 0 5 -17 -2 -40z m39 1 c-7 -35 -35 -64 -35 -37 0 21 30
80 37 73 3 -3 2 -19 -2 -36z m29 -13 c-14 -26 -19 -29 -22 -15 -4 20 29 78 35
60 2 -6 -4 -27 -13 -45z m586 32 c9 -17 8 -20 -7 -20 -10 0 -24 9 -31 20 -11
17 -10 20 8 20 10 0 24 -9 30 -20z m1228 -80 c0 -16 -3 -11 -9 15 -4 22 -8 51
-7 65 0 16 3 11 9 -15 4 -22 8 -51 7 -65z m-2278 -27 c-12 -54 -23 -108 -26
-120 -2 -13 -11 -23 -19 -23 -15 0 -15 7 6 113 11 57 51 155 57 139 2 -6 -6
-56 -18 -109z m346 65 c-12 -49 -26 -73 -26 -45 0 18 31 100 35 95 2 -2 -2
-24 -9 -50z m154 12 c-7 -17 -15 -28 -18 -26 -2 3 1 19 8 36 7 17 15 28 18 26
2 -3 -1 -19 -8 -36z m-310 -37 c-14 -65 -26 -93 -41 -93 -7 0 -8 12 -4 33 9
40 46 129 52 123 3 -2 -1 -31 -7 -63z m350 50 c0 -24 -17 -49 -26 -40 -4 4 -1
18 6 32 16 30 20 31 20 8z m64 2 c23 -18 20 -23 -22 -31 -34 -7 -44 10 -20 34
15 15 19 15 42 -3z m163 -21 c-4 -25 -2 -37 8 -41 8 -3 12 -9 9 -14 -3 -5 -1
-9 3 -9 5 0 10 -11 11 -25 1 -17 -3 -25 -14 -25 -8 0 -14 6 -13 13 4 21 -12
47 -30 47 -9 0 -25 7 -35 15 -19 14 -19 15 7 15 23 0 29 6 34 30 8 43 27 38
20 -6z m-822 -92 c-24 -141 -24 -142 -40 -142 -17 0 -17 -6 -5 88 9 71 50 187
58 163 2 -6 -4 -55 -13 -109z m975 98 c18 -12 2 -12 -25 0 -13 6 -15 9 -5 9 8
0 22 -4 30 -9z m-1014 -26 c-17 -67 -36 -228 -28 -236 5 -5 39 3 83 20 83 33
205 72 223 72 6 -1 -32 -16 -84 -35 -52 -19 -130 -52 -172 -74 l-78 -39 0 82
c0 84 9 134 37 199 18 43 28 49 19 11z m-171 -9 c-16 -8 -39 -14 -50 -14 -11
1 -2 7 20 14 52 17 68 17 30 0z m1168 9 c5 -6 -34 -63 -70 -101 -6 -7 -16 -34
-22 -60 -11 -53 -29 -105 -30 -87 -2 23 31 169 40 180 5 6 4 15 -3 22 -9 9 -7
16 7 32 17 19 64 27 78 14z m47 -22 c0 -15 -24 -32 -44 -32 -20 1 -20 1 3 20
24 21 41 26 41 12z m220 -17 c21 -11 27 -20 23 -35 -7 -25 -23 -37 -23 -16 0
9 -6 13 -13 10 -8 -3 -20 2 -27 11 -14 16 -45 21 -35 5 4 -6 -1 -7 -11 -3 -12
4 -14 8 -5 11 9 3 7 10 -6 25 -18 20 -18 20 26 13 24 -4 56 -13 71 -21z m-479
-1 c11 -14 9 -15 -16 -12 -16 1 -30 9 -33 16 -6 18 33 15 49 -4z m-298 -1 c-7
-2 -21 -2 -30 0 -10 3 -4 5 12 5 17 0 24 -2 18 -5z m581 -9 c6 -17 -12 -59
-22 -50 -3 4 0 12 6 18 7 7 12 17 12 22 0 6 -5 5 -12 -2 -19 -19 -29 -14 -16
8 15 24 24 25 32 4z m-387 -9 c0 -8 -4 -15 -9 -15 -5 0 -6 -10 -3 -21 5 -15 3
-20 -6 -17 -19 6 -23 36 -9 53 16 19 27 19 27 0z m-247 -5 c-8 -5 -28 -9 -45
-9 -30 2 -30 2 5 9 51 11 57 11 40 0z m630 -73 c-21 -42 -42 -72 -45 -67 -8
12 72 157 81 148 2 -3 -14 -39 -36 -81z m260 74 c0 -4 -5 -23 -11 -40 -8 -22
-15 -29 -22 -22 -7 7 -6 20 3 40 11 29 30 42 30 22z m-559 -54 c-8 -8 -11 -4
-11 14 0 33 14 47 18 19 2 -12 -1 -27 -7 -33z m1616 16 c-3 -10 -5 -4 -5 12 0
17 2 24 5 18 2 -7 2 -21 0 -30z m-2077 17 c0 -5 -4 -10 -10 -10 -5 0 -10 5
-10 10 0 6 5 10 10 10 6 0 10 -4 10 -10z m47 4 c-3 -3 -12 -4 -19 -1 -8 3 -5
6 6 6 11 1 17 -2 13 -5z m661 -6 c20 -20 14 -28 -18 -25 -35 4 -45 11 -35 26
8 15 38 14 53 -1z m327 -19 c-9 -17 -19 -29 -21 -26 -7 7 18 57 28 57 5 0 1
-14 -7 -31z m24 -22 c-5 -21 -14 -35 -19 -32 -6 3 -5 16 1 32 21 57 34 57 18
0z m31 3 c-6 -12 -14 -19 -17 -17 -2 3 1 15 7 27 6 12 14 19 17 17 2 -3 -1
-15 -7 -27z m-506 5 c-4 -8 -10 -12 -15 -9 -14 8 -10 24 6 24 9 0 12 -6 9 -15z
m546 8 c-1 -5 -12 -28 -25 -53 -19 -36 -24 -41 -25 -22 0 25 29 82 42 82 4 0
8 -3 8 -7z m-1117 -10 c-7 -2 -19 -2 -25 0 -7 3 -2 5 12 5 14 0 19 -2 13 -5z
m524 -60 c-2 -16 -4 -5 -4 22 0 28 2 40 4 28 2 -13 2 -35 0 -50z m303 53 c0
-2 -8 -10 -17 -17 -16 -13 -17 -12 -4 4 13 16 21 21 21 13z m131 -16 l24 -21
-32 16 c-32 15 -42 25 -24 25 5 0 19 -9 32 -20z m189 -10 c-6 -12 -9 -24 -6
-27 3 -3 -1 -12 -9 -19 -7 -8 -15 -19 -18 -26 -2 -7 -7 -10 -11 -7 -8 7 17 74
36 96 16 20 22 8 8 -17z m-515 0 c17 0 32 -19 40 -53 6 -21 4 -27 -9 -27 -19
0 -43 35 -50 75 -4 17 -3 24 0 18 3 -7 11 -13 19 -13z m-588 -22 c-3 -7 -5 -2
-5 12 0 14 2 19 5 13 2 -7 2 -19 0 -25z m517 5 c-10 -40 -14 -41 -14 -5 0 18
5 32 10 32 6 0 8 -11 4 -27z m606 6 c-7 -11 -14 -18 -17 -15 -3 3 0 12 7 21
18 21 23 19 10 -6z m40 2 c0 -6 -5 -13 -11 -16 -5 -4 -21 -31 -34 -61 -26 -58
-42 -72 -30 -26 14 57 75 140 75 103z m1057 -13 c-3 -8 -6 -5 -6 6 -1 11 2 17
5 13 3 -3 4 -12 1 -19z m-1058 -73 c-31 -64 -49 -88 -49 -65 0 12 34 82 58
118 29 44 24 13 -9 -53z m-310 61 c-21 -19 -139 -105 -139 -102 0 8 124 105
134 106 5 0 7 -2 5 -4z m71 -6 c8 -5 11 -10 5 -10 -5 0 -17 5 -25 10 -8 5 -10
10 -5 10 6 0 17 -5 25 -10z m314 1 c7 -11 -66 -186 -79 -189 -24 -6 -13 38 25
101 23 38 40 71 37 73 -3 3 -15 -11 -27 -30 -24 -40 -38 -49 -19 -13 33 62 51
78 63 58z m-1414 -21 c0 -5 -10 -10 -22 -10 -13 0 -43 -10 -68 -21 -25 -11
-40 -15 -34 -9 10 10 100 49 117 50 4 0 7 -4 7 -10z m1130 -30 c-6 -4 16 -23
49 -44 33 -20 63 -41 66 -47 4 -5 -24 10 -60 34 -37 24 -66 46 -64 50 2 3 -5
13 -16 22 -19 14 -18 15 8 3 16 -6 23 -14 17 -18z m70 -2 c0 -16 -3 -19 -11
-11 -6 6 -8 16 -5 22 11 17 16 13 16 -11z m-706 -25 c18 -21 17 -22 -13 -38
-30 -15 -31 -15 -31 5 0 19 19 66 23 58 1 -1 10 -13 21 -25z m-558 2 c-20 -15
-36 -19 -36 -10 0 5 38 23 50 24 3 0 -4 -6 -14 -14z m-68 -19 c19 4 23 3 12
-4 -8 -5 -29 -12 -47 -15 -31 -6 -32 -6 -15 14 9 11 18 15 20 9 2 -5 16 -7 30
-4z m937 -16 c-4 -12 -9 -19 -12 -17 -3 3 -2 15 2 27 4 12 9 19 12 17 3 -3 2
-15 -2 -27z m425 20 c0 -5 -2 -10 -4 -10 -3 0 -8 5 -11 10 -3 6 -1 10 4 10 6
0 11 -4 11 -10z m-593 -72 c-8 -24 -12 -28 -15 -15 -5 23 4 47 17 47 6 0 5
-13 -2 -32z m586 5 c9 -9 16 -18 14 -20 -6 -6 -75 26 -83 38 -10 17 46 2 69
-18z m-1156 -5 c-3 -8 -6 -5 -6 6 -1 11 2 17 5 13 3 -3 4 -12 1 -19z m1603 -8
c-6 -12 -14 -19 -17 -17 -2 3 1 15 7 27 6 12 14 19 17 17 2 -3 -1 -15 -7 -27z
m110 8 c0 -5 -9 -4 -20 2 -11 6 -20 12 -20 14 0 2 9 2 20 -1 11 -3 20 -9 20
-15z m-1213 -115 c-2 -21 -4 -4 -4 37 0 41 2 58 4 38 2 -21 2 -55 0 -75z m196
42 c4 -39 3 -50 -2 -30 -9 31 -14 102 -7 94 2 -2 6 -31 9 -64z m952 36 c-8
-17 -20 -33 -26 -37 -11 -7 5 29 24 54 17 21 18 13 2 -17z m-1200 -42 c-8 -19
-13 -25 -9 -14 3 11 8 34 12 50 3 17 8 23 10 14 1 -9 -4 -32 -13 -50z m815 10
c16 -22 18 -27 6 -23 -9 3 -16 12 -16 19 0 8 -4 17 -10 20 -6 3 -7 -1 -4 -9 8
-21 1 -20 -19 2 -15 17 -15 18 3 19 11 1 28 -11 40 -28z m-670 11 c0 -5 8 -6
18 -3 15 6 15 5 3 -10 -7 -9 -10 -17 -5 -17 4 0 -1 -7 -12 -15 -18 -14 -18
-14 5 -15 24 0 24 0 5 -15 -14 -11 -15 -14 -4 -15 13 0 13 -1 0 -10 -8 -5 -10
-10 -4 -10 6 0 11 -13 11 -30 0 -16 -4 -30 -9 -30 -4 0 -8 -4 -8 -10 0 -5 7
-10 16 -10 8 0 12 -4 9 -10 -8 -13 -52 -13 -60 -1 -3 5 -1 12 5 16 6 4 7 12 3
18 -11 18 -10 137 1 137 6 0 5 5 -2 12 -18 18 -15 28 8 28 11 0 20 -4 20 -10z
m1105 -67 c-29 -54 -29 -50 -1 21 11 27 22 44 24 38 2 -6 -9 -32 -23 -59z
m-505 21 c0 -2 -9 0 -20 6 -11 6 -20 13 -20 16 0 2 9 0 20 -6 11 -6 20 -13 20
-16z m-13 -6 c31 -13 103 -77 103 -91 0 -5 -15 4 -33 19 -18 16 -49 38 -70 49
-20 11 -37 23 -37 27 0 11 4 10 37 -4z m688 -28 c38 -25 21 -25 -25 0 -19 11
-28 19 -20 20 8 0 29 -9 45 -20z m-79 -25 c-8 -19 -20 -43 -26 -52 -9 -15 -10
-14 -4 7 8 30 33 80 39 80 3 0 -1 -16 -9 -35z m-2069 -27 c-2 -13 -4 -5 -4 17
-1 22 1 32 4 23 2 -10 2 -28 0 -40z m1466 21 c36 -19 117 -82 117 -92 0 -5
-18 7 -41 28 -23 20 -56 43 -75 51 -19 8 -34 16 -34 19 0 8 10 6 33 -6z m632
-48 c-21 -43 -29 -39 -8 4 9 19 18 33 21 31 2 -2 -4 -18 -13 -35z m129 0 c4
-5 -5 -4 -19 2 -14 7 -25 16 -25 20 0 9 36 -9 44 -22z m-51 -61 c-3 -12 -8
-19 -11 -16 -5 6 5 36 12 36 2 0 2 -9 -1 -20z m-1283 -6 c0 -4 -8 -13 -17 -21
-16 -13 -16 -14 7 -8 24 6 24 5 6 -9 -19 -16 -19 -16 3 -16 20 0 22 -2 11 -16
-7 -8 -24 -14 -38 -12 -21 3 -25 9 -26 46 -2 40 -1 42 26 42 15 0 28 -3 28 -6z
m1307 -66 c-3 -8 -6 -5 -6 6 -1 11 2 17 5 13 3 -3 4 -12 1 -19z m-1306 -41
c-6 -8 -8 -17 -4 -21 4 -4 1 -11 -7 -16 -13 -8 -12 -10 3 -10 24 0 21 -15 -5
-29 -22 -11 -22 -11 5 -6 15 3 27 1 27 -5 0 -5 -17 -10 -39 -10 -34 0 -38 3
-38 25 0 14 5 25 11 25 6 0 5 4 -3 9 -9 6 -10 11 -3 15 6 4 9 13 5 21 -4 11 3
15 27 15 26 0 30 -3 21 -13z m-1181 -127 c0 -5 -5 -10 -11 -10 -5 0 -7 5 -4
10 3 6 8 10 11 10 2 0 4 -4 4 -10z m1180 0 c-20 -13 -57 -13 -65 0 -4 6 11 10
37 10 31 0 39 -3 28 -10z m-10 -30 c-36 -11 -50 -11 -50 0 0 6 17 10 38 9 33
-1 34 -2 12 -9z m16 -25 c-22 -17 -62 -20 -71 -6 -3 6 14 12 37 14 24 2 45 4
48 5 3 1 -4 -5 -14 -13z m14 -24 c0 -5 -9 -13 -20 -16 -11 -3 -20 -10 -20 -15
0 -4 9 -6 20 -3 30 8 24 -14 -7 -25 l-28 -10 28 -1 c33 -1 35 -14 5 -29 l-23
-11 23 0 c30 -1 24 -23 -9 -32 -24 -7 -24 -7 4 -8 28 -1 40 -31 12 -31 -8 0
-15 -4 -15 -10 0 -5 5 -10 10 -10 6 0 15 -11 22 -25 15 -34 -4 -55 -53 -55
-44 0 -58 14 -30 29 27 15 39 14 43 -4 2 -13 6 -12 20 5 18 20 17 20 -27 20
-32 0 -45 4 -45 14 0 8 6 17 13 19 8 4 9 8 1 14 -12 9 -15 73 -3 73 4 0 3 15
-2 33 -7 25 -6 34 7 44 12 9 13 13 2 20 -9 5 0 10 27 14 22 3 41 7 43 8 1 0 2
-3 2 -8z m3 -298 c14 -14 -17 -33 -54 -33 -32 0 -39 3 -39 20 0 17 7 20 43 20
24 0 47 -3 50 -7z m3 -54 c10 -17 -9 -29 -52 -32 -34 -2 -39 1 -42 21 -3 20 1
22 42 22 25 0 48 -5 52 -11z m-6 -95 l0 -55 -47 3 c-38 2 -49 7 -51 22 -4 16
0 18 27 13 17 -4 31 -2 31 3 0 4 8 11 18 13 9 3 -2 5 -25 6 -35 1 -43 4 -43
20 0 15 8 21 38 24 20 2 40 4 45 5 4 1 7 -23 7 -54z m-40 -84 c-19 -13 -8 -13
24 0 22 8 26 7 26 -8 0 -10 -12 -23 -27 -29 l-28 -11 28 -1 c17 -1 27 -7 27
-16 0 -9 -12 -21 -27 -27 l-28 -12 28 -4 c33 -4 35 -25 5 -46 l-22 -16 22 0
c15 0 22 -6 22 -19 0 -14 -10 -20 -41 -25 -22 -4 -44 -4 -50 -1 -16 11 -10 45
9 45 15 1 15 2 -3 16 -14 12 -16 18 -7 21 10 4 10 8 1 19 -9 11 -9 14 0 14 8
0 7 6 -3 16 -19 18 -20 30 -5 40 8 5 7 9 -1 14 -23 14 -2 40 32 40 25 0 29 -3
18 -10z m45 -250 c0 -24 -89 -21 -93 3 -3 16 3 18 45 15 35 -2 48 -7 48 -18z
m5 -54 c0 -19 -7 -25 -36 -30 -40 -8 -64 5 -64 35 0 16 8 19 50 19 46 0 50 -2
50 -24z m-6 -56 c17 -16 -6 -30 -50 -30 -40 0 -44 2 -44 24 0 23 3 24 43 19
23 -3 46 -9 51 -13z m4 -62 c-3 -20 -9 -23 -48 -23 -35 0 -45 4 -48 18 -3 12
3 17 20 17 18 0 20 -2 8 -10 -8 -5 -10 -10 -4 -10 5 0 19 7 30 15 28 22 46 19
42 -7z m-52 -48 c11 11 54 2 54 -11 0 -5 -7 -9 -15 -9 -23 0 -18 -17 7 -23 35
-10 3 -37 -43 -37 -22 0 -39 -5 -39 -10 0 -18 30 -23 57 -11 21 10 28 9 34 -1
13 -21 -5 -30 -52 -26 l-44 3 -3 44 c-3 40 -2 43 13 31 8 -7 18 -10 22 -6 3 3
1 6 -6 6 -7 0 -9 5 -6 10 3 6 -1 13 -9 16 -9 3 -16 13 -16 20 0 11 5 12 18 5
12 -6 23 -6 28 -1z m-20 -150 c8 -8 19 -8 38 0 39 14 46 13 46 -10 0 -18 -7
-20 -55 -20 -48 0 -55 2 -55 20 0 22 10 26 26 10z m24 -61 c-16 -12 -18 -12
38 5 26 9 32 -18 6 -28 -29 -11 -82 -6 -87 8 -8 19 1 26 32 26 21 0 23 -2 11
-11z m36 -49 c32 0 30 -18 -3 -32 -22 -9 -24 -12 -10 -15 9 -3 17 -8 17 -13 0
-5 8 -7 18 -4 14 5 15 4 2 -5 -19 -14 -97 -14 -105 -1 -4 6 -2 17 5 25 7 9 8
15 0 20 -5 3 -10 13 -10 22 0 12 7 14 31 9 17 -3 42 -6 55 -6z m34 -110 c0
-15 -9 -22 -30 -26 -16 -4 -30 -10 -30 -15 0 -4 -8 -10 -17 -13 -10 -3 -4 -3
12 0 17 2 37 6 45 7 8 1 15 -5 15 -13 0 -11 -14 -16 -52 -18 -47 -3 -53 -1
-53 17 0 10 6 22 13 25 10 5 10 7 0 12 -7 3 -13 12 -13 19 0 13 12 16 93 23
11 1 17 -5 17 -18z m-90 -110 c-12 -8 -11 -10 7 -10 12 0 25 5 28 10 9 15 55
12 55 -4 0 -23 -92 -37 -105 -16 -8 13 3 30 18 30 7 0 6 -4 -3 -10z m74 -46
c29 -11 5 -24 -45 -24 -46 0 -59 7 -42 23 8 9 66 9 87 1z m1 -54 c-3 -5 -24
-10 -46 -10 -21 0 -39 5 -39 10 0 6 21 10 46 10 27 0 43 -4 39 -10z m10 -29
c9 -15 -32 -33 -68 -29 -21 2 -33 9 -35 21 -3 14 4 17 47 17 27 0 52 -4 56 -9z
m-6 -62 c-8 -5 -29 -9 -47 -9 -22 0 -31 -4 -26 -11 4 -7 22 -9 45 -6 22 3 39
2 39 -2 0 -11 -47 -31 -71 -31 -23 0 -45 41 -34 67 5 12 9 14 12 6 3 -7 11
-13 19 -13 9 0 13 4 9 9 -3 5 9 11 27 13 35 3 49 -9 27 -23z m11 -84 c-8 -10
-29 -15 -59 -14 -25 1 -37 4 -26 7 l20 5 -20 8 c-14 5 -1 8 39 8 51 1 57 -1
46 -14z m10 -39 c0 -23 -27 -37 -67 -34 -26 2 -39 8 -41 20 -3 16 1 18 91 26
9 1 17 -4 17 -12z m0 -66 c0 -36 -102 -42 -108 -6 -4 17 0 18 36 12 24 -3 43
-2 47 4 10 17 25 11 25 -10z m7 -64 c-4 -13 -66 -27 -89 -20 -10 3 -18 12 -18
19 0 11 14 14 55 13 34 -1 54 -6 52 -12z m-75 -51 c3 -13 6 -13 32 0 40 21 48
19 44 -12 -3 -25 -8 -28 -43 -31 -40 -3 -65 14 -65 45 0 18 28 16 32 -2z m3
-65 c-3 -5 3 -10 14 -10 11 0 23 5 26 10 9 15 47 12 43 -2 -3 -7 -26 -17 -52
-22 -37 -8 -49 -7 -56 4 -11 17 -4 30 16 30 8 0 12 -4 9 -10z m5 -50 c0 -5 12
-10 26 -10 14 0 23 4 19 10 -4 6 5 10 19 10 31 0 35 -25 7 -40 -26 -14 -74
-13 -89 2 -17 17 -15 38 3 38 8 0 15 -4 15 -10z m100 -63 c0 -25 -24 -37 -71
-37 -49 0 -65 10 -55 35 7 20 126 21 126 2z m0 -68 c0 -20 -20 -29 -66 -29
-21 0 -33 -4 -29 -10 3 -5 28 -10 56 -10 45 0 49 -2 49 -24 0 -18 -7 -25 -32
-31 l-33 -8 35 -6 c21 -4 35 -12 35 -21 0 -17 -59 -32 -97 -24 -21 4 -28 11
-28 30 0 16 6 24 17 24 14 0 13 3 -5 16 -17 12 -22 25 -22 63 l0 48 60 -1 c49
-1 60 -4 60 -17z m26 -215 c5 -34 3 -48 -7 -55 -20 -13 -29 -11 -29 6 0 20 -7
19 -37 -4 l-24 -20 53 -3 c46 -3 53 -6 56 -25 3 -22 0 -23 -58 -23 -65 0 -65
0 -74 63 l-5 37 55 0 c30 0 54 5 54 10 0 6 -25 10 -55 10 -48 0 -55 3 -55 19
0 17 8 21 53 24 28 2 55 4 59 5 4 1 10 -19 14 -44z m24 -165 c0 -22 -62 -54
-87 -45 -10 4 -13 0 -11 -16 3 -20 8 -22 53 -20 37 2 46 0 35 -7 -8 -6 -34
-11 -56 -11 -41 0 -42 1 -53 44 -19 76 -19 76 54 76 59 0 65 -2 65 -21z m10
-59 c0 -5 -21 -9 -47 -9 -43 1 -45 2 -18 9 44 11 65 11 65 0z m10 -65 c0 -27
-13 -33 -85 -37 -35 -3 -40 0 -43 20 -3 20 1 22 40 22 24 0 50 5 58 10 23 15
30 12 30 -15z m10 -55 c0 -14 -9 -21 -37 -25 -61 -10 -61 -13 -4 -14 50 -1 53
-2 35 -16 -19 -14 -18 -14 4 -15 26 0 29 -15 5 -25 -16 -6 -15 -8 7 -18 l25
-11 -27 -4 c-16 -2 -28 -8 -28 -14 0 -6 10 -8 25 -4 27 7 35 -8 9 -18 -9 -3
-35 -6 -59 -6 -45 0 -68 16 -44 31 10 6 11 9 2 9 -20 0 -15 20 5 21 12 0 11 3
-7 10 -14 6 -21 15 -18 23 3 8 2 16 -3 18 -5 2 -12 16 -16 32 l-7 29 46 -7
c34 -5 49 -3 59 8 18 21 28 20 28 -4z m673 -137 c-7 -2 -21 -2 -30 0 -10 3 -4
5 12 5 17 0 24 -2 18 -5z m-133 -19 c-82 -12 -166 -17 -145 -8 20 8 131 22
180 21 42 0 37 -2 -35 -13z m-493 -30 c9 -25 -24 -44 -76 -44 -24 0 -41 -3
-37 -7 4 -4 35 -7 69 -8 48 0 62 -4 65 -16 4 -20 -38 -39 -88 -39 -45 0 -55
13 -66 78 l-6 41 58 4 c33 2 63 4 67 5 4 1 10 -5 14 -14z m19 -129 c-25 -19
-81 -29 -103 -20 -13 6 -3 11 37 20 77 18 89 18 66 0z m-67 -79 c15 -60 14
-62 -9 -41 -12 10 -18 25 -16 32 3 7 1 13 -5 13 -6 0 -9 6 -6 14 3 8 1 17 -6
20 -7 2 -2 5 9 5 17 1 24 -8 33 -43z m54 37 c-7 -2 -19 -2 -25 0 -7 3 -2 5 12
5 14 0 19 -2 13 -5z m39 -15 c-7 -7 -12 -8 -12 -2 0 14 12 26 19 19 2 -3 -1
-11 -7 -17z m3 -28 c-3 -5 -12 -10 -18 -10 -7 0 -6 4 3 10 19 12 23 12 15 0z
m-45 -10 c0 -5 -4 -10 -10 -10 -5 0 -10 5 -10 10 0 6 5 10 10 10 6 0 10 -4 10
-10z m-15 -59 c-3 -12 -13 -21 -21 -21 -12 0 -12 4 3 24 21 28 28 26 18 -3z
m75 10 c0 -10 -6 -24 -14 -30 -11 -9 -15 -7 -19 8 -5 19 9 41 25 41 4 0 8 -8
8 -19z m67 -27 c-3 -3 -12 -4 -19 -1 -8 3 -5 6 6 6 11 1 17 -2 13 -5z m230
-40 c-3 -3 -12 -4 -19 -1 -8 3 -5 6 6 6 11 1 17 -2 13 -5z"/>
<path d="M4160 5611 c0 -5 19 -12 43 -15 23 -4 78 -22 121 -41 44 -19 84 -31
89 -28 12 8 -71 45 -160 73 -71 22 -93 25 -93 11z"/>
<path d="M5208 5553 c7 -3 16 -2 19 1 4 3 -2 6 -13 5 -11 0 -14 -3 -6 -6z"/>
<path d="M5095 5510 c-3 -6 1 -7 9 -4 18 7 21 14 7 14 -6 0 -13 -4 -16 -10z"/>
<path d="M4625 5380 c-3 -6 1 -7 9 -4 18 7 21 14 7 14 -6 0 -13 -4 -16 -10z"/>
<path d="M5105 4360 c-3 -5 -2 -10 4 -10 5 0 13 5 16 10 3 6 2 10 -4 10 -5 0
-13 -4 -16 -10z"/>
<path d="M5026 3001 c-4 -5 3 -7 14 -4 23 6 26 13 6 13 -8 0 -17 -4 -20 -9z"/>
<path d="M5008 2763 c7 -3 16 -2 19 1 4 3 -2 6 -13 5 -11 0 -14 -3 -6 -6z"/>
<path d="M5008 2523 c6 -2 18 -2 25 0 6 3 1 5 -13 5 -14 0 -19 -2 -12 -5z"/>
<path d="M5018 2463 c7 -3 16 -2 19 1 4 3 -2 6 -13 5 -11 0 -14 -3 -6 -6z"/>
<path d="M5018 2033 c7 -3 16 -2 19 1 4 3 -2 6 -13 5 -11 0 -14 -3 -6 -6z"/>
<path d="M5075 1190 c-8 -13 5 -13 25 0 13 8 13 10 -2 10 -9 0 -20 -4 -23 -10z"/>
<path d="M5118 1063 c6 -2 18 -2 25 0 6 3 1 5 -13 5 -14 0 -19 -2 -12 -5z"/>
<path d="M5090 1000 c0 -5 5 -10 11 -10 5 0 7 5 4 10 -3 6 -8 10 -11 10 -2 0
-4 -4 -4 -10z"/>
<path d="M5130 820 c0 -5 9 -10 21 -10 11 0 17 5 14 10 -3 6 -13 10 -21 10 -8
0 -14 -4 -14 -10z"/>
<path d="M5205 380 l-40 -7 42 -2 c23 0 45 4 48 9 3 6 3 9 -2 9 -4 -1 -26 -5
-48 -9z"/>
<path d="M5202 309 c16 -11 49 -11 65 -1 6 4 -9 7 -34 8 -27 1 -39 -2 -31 -7z"/>
<path d="M4570 5924 c0 -11 51 -92 65 -104 24 -20 18 -3 -20 55 -32 50 -45 65
-45 49z"/>
<path d="M5794 5856 c-35 -15 -74 -46 -74 -58 0 -5 24 5 53 22 30 16 62 30 73
30 10 0 26 5 34 10 24 15 -49 12 -86 -4z"/>
<path d="M6250 5480 c0 -5 5 -10 10 -10 6 0 10 5 10 10 0 6 -4 10 -10 10 -5 0
-10 -4 -10 -10z"/>
<path d="M6036 5465 c19 -15 19 -15 -1 -9 -11 3 14 -13 55 -35 41 -22 84 -52
96 -67 15 -18 28 -25 45 -22 20 3 5 16 -85 76 -61 40 -114 72 -120 72 -5 0 -1
-7 10 -15z"/>
<path d="M5982 5313 c2 -10 14 -23 26 -29 13 -6 36 -24 53 -40 16 -15 29 -23
29 -18 0 12 -92 104 -104 104 -4 0 -6 -8 -4 -17z"/>
<path d="M3500 4899 c0 -5 5 -7 10 -4 6 3 10 8 10 11 0 2 -4 4 -10 4 -5 0 -10
-5 -10 -11z"/>
<path d="M6241 4855 c128 -162 159 -196 159 -180 0 14 -92 147 -97 141 -4 -4
-23 8 -42 26 -20 18 -28 24 -20 13z m80 -67 c11 -21 11 -22 -4 -9 -10 7 -17
17 -17 22 0 15 9 10 21 -13z"/>
<path d="M3949 4801 c-13 -15 -29 -30 -34 -32 -17 -7 -86 -131 -82 -148 2 -10
14 4 30 36 15 29 47 77 73 108 47 58 58 87 13 36z"/>
<path d="M4452 4768 c-7 -7 -12 -8 -12 -2 0 13 -37 -42 -71 -109 -39 -76 -51
-107 -40 -107 5 0 16 19 25 41 17 41 50 92 102 157 25 30 22 46 -4 20z"/>
<path d="M5381 3845 c-44 -46 -81 -90 -81 -97 0 -7 21 12 48 42 60 70 104 110
113 105 4 -3 9 4 12 15 3 11 2 20 -3 20 -4 0 -44 -38 -89 -85z"/>
<path d="M5480 3738 c-12 -22 -12 -22 6 -6 10 10 15 20 12 24 -4 3 -12 -5 -18
-18z"/>
<path d="M5605 3670 c-3 -5 -1 -10 4 -10 6 0 11 5 11 10 0 6 -2 10 -4 10 -3 0
-8 -4 -11 -10z"/>
<path d="M5625 3660 c-10 -11 -21 -17 -26 -15 -4 3 -19 -14 -33 -38 -31 -52
-34 -68 -6 -36 18 21 19 22 14 4 -6 -20 -5 -20 13 1 10 11 26 31 35 45 16 24
17 24 6 -13 -6 -21 -16 -34 -21 -31 -6 4 -8 0 -4 -10 3 -9 -1 -18 -10 -21 -9
-4 -13 -13 -9 -22 4 -10 2 -13 -6 -8 -8 5 -9 2 -5 -9 3 -10 3 -17 -2 -17 -10
0 -35 -103 -29 -121 3 -8 14 18 26 56 25 80 42 112 42 80 0 -11 -7 -42 -15
-69 -8 -27 -15 -65 -14 -85 l1 -36 9 35 c4 19 20 88 35 153 15 65 30 113 34
106 5 -6 3 -26 -2 -43 -14 -41 -27 -150 -26 -206 1 -35 3 -28 10 30 16 130 18
140 34 140 11 0 13 -6 9 -21 -5 -14 -3 -19 4 -15 6 4 20 -12 33 -41 28 -59 27
-58 34 -50 4 3 -3 21 -15 40 -24 38 -26 47 -11 47 6 0 10 -6 10 -14 0 -7 7
-20 17 -27 9 -8 22 -29 30 -48 8 -18 16 -31 19 -28 6 5 -53 123 -87 175 -11
17 -19 32 -16 32 9 0 86 -106 112 -155 26 -49 25 -31 -1 33 -17 42 -11 41 16
-4 30 -47 37 -37 11 15 -22 43 -126 159 -171 191 -27 19 -28 19 -45 0z"/>
<path d="M5560 3656 c0 -8 -6 -16 -12 -19 -7 -2 -10 -8 -6 -12 8 -9 48 22 48
37 0 4 -7 8 -15 8 -8 0 -15 -6 -15 -14z"/>
<path d="M5504 3633 c-31 -43 -39 -57 -26 -49 5 3 13 0 15 -6 3 -7 6 -2 6 11
1 13 8 29 17 36 9 6 15 17 13 24 -3 7 -13 1 -25 -16z"/>
<path d="M5508 3568 c-40 -78 -68 -140 -68 -151 1 -12 62 101 87 161 19 46 7
40 -19 -10z"/>
<path d="M5431 3492 c-24 -61 -24 -62 -13 -62 5 0 14 19 21 43 7 23 19 49 27
58 12 13 12 16 0 16 -8 0 -24 -24 -35 -55z"/>
<path d="M5490 3450 c-13 -27 -21 -52 -18 -55 3 -3 15 18 27 46 28 67 21 74
-9 9z"/>
<path d="M5536 3485 c-9 -26 -7 -32 5 -12 6 10 9 21 6 23 -2 3 -7 -2 -11 -11z"/>
<path d="M5667 3413 c10 -90 23 -124 17 -43 -3 41 -9 79 -14 83 -4 5 -5 -13
-3 -40z"/>
<path d="M5512 3429 c-20 -54 -24 -71 -14 -65 13 8 36 75 28 83 -3 3 -9 -5
-14 -18z"/>
<path d="M5711 3385 c0 -16 6 -43 14 -60 l14 -30 -6 40 c-3 22 -9 49 -14 60
-6 17 -8 15 -8 -10z"/>
<path d="M5750 3378 c0 -7 9 -24 20 -38 l20 -25 -10 35 c-6 19 -10 36 -10 37
0 2 -4 3 -10 3 -5 0 -10 -6 -10 -12z"/>
<path d="M5976 419 c-54 -4 -103 -10 -110 -13 -6 -3 39 -2 99 2 61 4 165 5
233 4 83 -3 122 0 122 7 0 13 -189 13 -344 0z"/>
<path d="M5585 341 c-10 -17 -32 -162 -24 -166 9 -6 19 20 19 53 0 44 11 76
21 60 6 -8 9 0 9 25 0 35 -12 48 -25 28z"/>
<path d="M4895 284 c4 -10 19 -57 34 -103 26 -83 51 -116 51 -69 1 20 2 21 11
6 6 -11 21 -18 37 -17 26 0 26 1 5 11 -13 6 -28 29 -38 56 -18 53 -19 66 -5
57 13 -8 13 1 -1 26 -5 11 -15 17 -20 13 -9 -5 -6 -37 7 -86 3 -10 2 -18 -3
-18 -5 0 -21 29 -37 65 -16 36 -33 68 -39 72 -7 4 -8 0 -2 -13z"/>
<path d="M5894 212 c-15 -34 -30 -60 -32 -57 -8 8 -32 -16 -32 -33 0 -8 7 -24
17 -34 10 -11 12 -18 4 -18 -6 0 -14 7 -17 15 -4 8 -12 15 -20 15 -9 0 -14 13
-15 38 l-1 37 -14 -34 c-8 -18 -24 -35 -34 -38 -24 -6 -26 -31 -5 -39 8 -4 12
-10 9 -15 -6 -11 121 -10 191 1 l50 7 -56 2 c-79 2 -81 12 -30 140 31 77 18
88 -15 13z"/>
<path d="M4676 163 c8 -31 22 -53 35 -53 5 0 0 18 -11 40 -24 47 -33 51 -24
13z"/>
<path d="M4510 170 c0 -4 15 -14 33 -22 17 -9 52 -25 76 -37 24 -12 46 -19 49
-16 8 8 -20 35 -37 35 -9 0 -21 4 -26 9 -14 13 -95 40 -95 31z"/>
<path d="M5020 150 c0 -11 4 -20 8 -20 4 0 8 9 9 20 1 11 -2 20 -8 20 -5 0 -9
-9 -9 -20z"/>
<path d="M5756 155 c4 -8 8 -15 10 -15 2 0 4 7 4 15 0 8 -4 15 -10 15 -5 0 -7
-7 -4 -15z"/>
<path d="M4740 156 c0 -2 8 -10 18 -17 15 -13 16 -12 3 4 -13 16 -21 21 -21
13z"/>
<path d="M4842 133 c5 -25 28 -28 28 -4 0 12 -6 21 -16 21 -9 0 -14 -7 -12
-17z"/>
<path d="M5900 131 c-12 -24 -13 -34 -1 -26 5 3 12 -3 14 -12 3 -10 5 -1 6 20
1 42 -3 46 -19 18z"/>
<path d="M4900 127 c0 -8 -6 -18 -12 -20 -7 -3 -3 -6 9 -6 28 -1 37 13 18 29
-12 10 -15 10 -15 -3z"/>
<path d="M5990 105 c0 -16 16 -20 24 -6 3 5 -1 11 -9 15 -9 3 -15 0 -15 -9z"/>
<path d="M4736 95 c4 -8 8 -15 10 -15 2 0 4 7 4 15 0 8 -4 15 -10 15 -5 0 -7
-7 -4 -15z"/>
<path d="M5941 84 c0 -11 3 -14 6 -6 3 7 2 16 -1 19 -3 4 -6 -2 -5 -13z"/>
<path d="M4965 70 c-27 -10 -43 -19 -34 -19 9 -1 31 -4 48 -7 33 -7 45 11 14
19 -11 3 -7 5 10 6 15 0 27 6 27 11 0 13 -5 12 -65 -10z"/>
<path d="M5175 60 c3 -5 14 -10 23 -10 15 0 15 2 2 10 -20 13 -33 13 -25 0z"/>
</g>
</svg>
